<svg xmlns="http://www.w3.org/2000/svg" viewBox="0 0 1498.9 1384.67"><defs><style>.cls-1{fill:#e6cd1d;}.cls-2{fill:#1e1b00;}.cls-3{fill:#30763a;}.cls-4{fill:#231f20;}</style></defs><title>Asset 3</title><g id="Layer_2" data-name="Layer 2"><g id="Layer_1-2" data-name="Layer 1"><path class="cls-1" d="M808.59,239.94l-1-1.8-.52-.89-.54-.89c-.71-1.2-1.44-2.38-2.2-3.54-1.67,1.93-3.37,3.85-5.13,5.71l-1,1-1,1c-.66.7-1.34,1.37-2,2.05s-1.48,1.44-2.21,2.15c3,1.7,6,3.37,9.09,5l2,1q3.9-2.37,7.55-5.12c-.35-.7-.7-1.41-1.08-2.11C809.93,242.36,809.25,241.15,808.59,239.94Z"/><path class="cls-1" d="M757,198c-.14.25-.26.5-.4.75l-.42.73-.42.74-.45.72-.44.71c-.15.24-.32.47-.47.71a64.4,64.4,0,0,1-4,5.4c-.42.51-.86,1-1.29,1.49,1.21.35,2.42.7,3.62,1.07,3,.94,5.94,2,8.88,3,.75-1,1.51-2,2.25-3q3.34-4.64,6.39-9.48l.3-.49c-1.87-1.09-3.76-2.13-5.69-3.12s-3.94-2-5.94-2.87c-.36.71-.71,1.42-1.08,2.13Z"/><path class="cls-1" d="M644.21,203.34c-.47-.71-1-1.42-1.41-2.14q-3.07-4.86-5.8-9.92T632,181q-2.29-5.28-4.1-10.74a110.21,110.21,0,0,1-5-22.42,107.56,107.56,0,0,1-.58-11.49,95.8,95.8,0,0,1,.78-11.47l.4-2.84.05-.36.07-.35.13-.71.25-1.41.27-1.41.31-1.41.32-1.4.15-.7.08-.35.1-.35.74-2.77.18-.69c.07-.23.15-.46.22-.69l.42-1.37.43-1.37c.07-.23.14-.46.22-.69l.24-.67,1-2.71a112.57,112.57,0,0,1,4.62-10.5l.64-1.28.32-.64.35-.63L636,87c.45-.85,1-1.66,1.45-2.48l1.48-2.45a121.59,121.59,0,0,0-9.85,20.63l-.93,2.71-.23.67c-.08.23-.14.46-.21.69l-.41,1.36-.41,1.37-.21.69-.17.69-.72,2.77-.08.34-.08.35-.15.7-.3,1.4-.3,1.4-.25,1.4-.24,1.41-.12.7-.06.36,0,.35-.37,2.83c0,.24-.07.47-.09.71l-.07.71-.13,1.42-.13,1.42c0,.48-.05,1-.08,1.43l-.08,1.42c0,.48-.06.95-.06,1.43l0,2.85a105.8,105.8,0,0,0,.64,11.4A110.11,110.11,0,0,0,628.66,170c1.2,3.61,2.55,7.18,4.06,10.67s3.19,6.93,5,10.29,3.7,6.67,5.72,9.9c.45.71.92,1.41,1.38,2.12.31-.22.61-.45.92-.66a98.52,98.52,0,0,1,10.06-5.92,132.13,132.13,0,0,1-5.58-12.16c-1.66-4.18-3.11-8.45-4.38-12.77-.64-2.16-1.21-4.34-1.75-6.53-.13-.55-.25-1.1-.38-1.65s-.26-1.09-.37-1.64l-.35-1.66-.17-.82-.16-.83c-.87-4.43-1.55-8.89-2-13.38a135.08,135.08,0,0,1-.2-27,93.35,93.35,0,0,1,2.3-13.4c1.06-4.41,2.39-8.74,3.81-13l2.15-6.39c.69-2.13,1.39-4.25,1.93-6.38.27-1.07.51-2.14.67-3.2.08-.53.15-1.06.18-1.59a11.65,11.65,0,0,0,0-1.56,8.94,8.94,0,0,0-.21-1.48,7,7,0,0,0-.19-.69l-.12-.34-.13-.29q-.36.32-.72.66c-4.44,4.44-5.67-1.39-5.67-1.39s.89-1,2.36-2.23a10.08,10.08,0,0,0-1.45-.09,7,7,0,0,0-1,.07c-.17,0-.34,0-.51.06l-.5.1-.5.1a4.6,4.6,0,0,0-.5.13c-.33.09-.66.16-1,.28l-.49.17-.24.08-.24.1-1,.39-.93.44-.9.49a29.32,29.32,0,0,0-3.45,2.27C633,72,632,72.88,631,73.81s-2,1.91-2.94,2.91c-1.88,2-3.65,4.14-5.34,6.33s-3.3,4.43-4.86,6.72a62.72,62.72,0,0,0-4.25,7.09,77.33,77.33,0,0,0-5.82,15.47,100.93,100.93,0,0,0-2.86,16.3,118.77,118.77,0,0,0-.36,16.55c.14,2.76.36,5.52.67,8.26s.73,5.48,1.22,8.2a125.05,125.05,0,0,0,4,16.07q1.27,3.94,2.8,7.8c1,2.57,2.14,5.1,3.33,7.59a115.53,115.53,0,0,0,8.22,14.38c1.53,2.3,3.17,4.52,4.88,6.69.33.42.68.83,1,1.25.71-.83,1.44-1.65,2.2-2.44A77,77,0,0,1,644.21,203.34Z"/><path class="cls-1" d="M771.26,199.07c1.63-2.68,3.2-5.39,4.67-8.16,1.78-3.36,3.45-6.79,5-10.29s2.86-7.06,4.06-10.67a110.11,110.11,0,0,0,4.95-22.25,105.8,105.8,0,0,0,.64-11.4l0-2.85c0-.48,0-.95-.06-1.43l-.08-1.42c0-.48,0-.95-.08-1.43l-.13-1.42-.13-1.42-.07-.71c0-.24-.06-.47-.09-.71l-.37-2.83,0-.35-.06-.36-.12-.7-.24-1.41-.25-1.4-.3-1.4-.3-1.4-.15-.7L788,114l-.09-.34-.71-2.77-.18-.69-.21-.69-.41-1.37-.41-1.36c-.07-.23-.13-.46-.21-.69l-.23-.67-.93-2.71a120.83,120.83,0,0,0-9.85-20.63l1.48,2.45c.49.82,1,1.63,1.45,2.48L779,89.53l.34.63.32.64.64,1.28a110,110,0,0,1,4.62,10.5l1,2.71.24.67c.08.23.15.46.22.69l.43,1.37.43,1.37.21.69.18.69.74,2.77.1.35.08.35.15.7.32,1.4.32,1.41.26,1.41.26,1.41.12.71.07.35.05.36.41,2.84a97.9,97.9,0,0,1,.77,11.47,105,105,0,0,1-.58,11.49,109.54,109.54,0,0,1-5,22.42q-1.82,5.46-4.1,10.74t-5,10.33c-1.48,2.77-3.07,5.48-4.72,8.15l.93.53a98.57,98.57,0,0,1,13.68,9.76c.16.13.3.27.45.4.63-.87,1.26-1.75,1.85-2.64A114.28,114.28,0,0,0,797,193.1q1.8-3.73,3.33-7.59t2.8-7.8a125.05,125.05,0,0,0,4-16.07q.73-4.08,1.22-8.2c.31-2.74.53-5.5.67-8.26a118.77,118.77,0,0,0-.36-16.55,100.93,100.93,0,0,0-2.86-16.3A77.33,77.33,0,0,0,800,96.86a62.72,62.72,0,0,0-4.25-7.09c-1.56-2.29-3.17-4.54-4.86-6.72s-3.46-4.31-5.34-6.33q-1.43-1.5-2.94-2.91c-1-.93-2.07-1.82-3.17-2.66A30.05,30.05,0,0,0,776,68.88l-.91-.49L774.2,68l-1-.39-.24-.1-.24-.08-.49-.17c-.32-.12-.65-.19-1-.28a4.6,4.6,0,0,0-.5-.13l-.5-.1-.5-.1c-.17,0-.34,0-.51-.06a7,7,0,0,0-1-.07,9.86,9.86,0,0,0-1.44.09c1.46,1.28,2.35,2.23,2.35,2.23s-1.23,5.83-5.67,1.39c-.23-.23-.48-.45-.72-.66l-.13.29-.12.34a7,7,0,0,0-.19.69,8.94,8.94,0,0,0-.21,1.48,13.59,13.59,0,0,0,0,1.56c0,.53.1,1.06.18,1.59.16,1.06.4,2.13.67,3.2.55,2.13,1.24,4.25,1.93,6.38l2.15,6.39c1.42,4.28,2.75,8.61,3.81,13a93.35,93.35,0,0,1,2.3,13.4,135.08,135.08,0,0,1-.2,27.05c-.46,4.49-1.14,9-2,13.38l-.16.83-.17.82-.35,1.66c-.11.55-.25,1.1-.37,1.64s-.25,1.1-.38,1.65c-.54,2.19-1.11,4.37-1.75,6.53-1.27,4.32-2.71,8.59-4.38,12.77q-1.8,4.51-3.93,8.88c2,.91,4,1.86,6,2.86S769.35,198,771.26,199.07Z"/><path class="cls-1" d="M772.07,201.22l-.93-.54-.32.52q-3.08,4.85-6.49,9.47c-.71,1-1.44,1.91-2.17,2.86l1.37.5q5.37,2,10.6,4.39l1.31.6,1.3.6c.61.28,1.21.58,1.82.87h0c1.88-2,3.66-4.14,5.37-6.31.72-.91,1.43-1.85,2.12-2.79l-.54-.49A96.75,96.75,0,0,0,772.07,201.22Z"/><path class="cls-1" d="M791.18,227.19c1.07.64,2.15,1.29,3.2,2-1.07-.66-2.17-1.29-3.26-1.91-.18.17-.34.34-.52.5q-2.43,2.34-4.94,4.6c-1.67,1.51-3.36,3-5,4.48l-.61.53,10.24,5.91,2.49,1.4c.74-.75,1.5-1.48,2.23-2.24s1.32-1.37,2-2.07l1-1.05,1-1.05c1.76-1.92,3.46-3.88,5.14-5.86-.66-1-1.32-2-2-3-1.57-2.27-3.24-4.48-5-6.62-.23-.28-.47-.54-.7-.82l-1,1C794,224.42,792.6,225.82,791.18,227.19Z"/><path class="cls-1" d="M803.37,228.45c.6.86,1.19,1.74,1.77,2.62,2.85-3.42,5.6-6.93,8.2-10.54,2.23-3.09,4.36-6.26,6.39-9.48s3.94-6.53,5.72-9.9,3.45-6.79,5-10.29,2.87-7.06,4.06-10.67a110.81,110.81,0,0,0,5-22.25,108.57,108.57,0,0,0,.63-11.4l-.05-2.85c0-.48,0-.95-.06-1.43l-.08-1.42c0-.48,0-1-.08-1.43l-.13-1.42-.13-1.42-.06-.71-.09-.71-.38-2.83,0-.36-.06-.35-.12-.7-.24-1.41-.25-1.41-.3-1.39-.3-1.4-.15-.7-.07-.35-.09-.34-.71-2.77-.18-.69c-.06-.23-.14-.46-.2-.69l-.41-1.37-.42-1.37c-.07-.22-.13-.45-.21-.68l-.23-.68-.93-2.7a121.28,121.28,0,0,0-9.85-20.64l1.48,2.46c.49.82,1,1.63,1.45,2.47l1.38,2.52.34.62.32.65.64,1.28a107.82,107.82,0,0,1,4.62,10.5l1,2.7.24.68c.08.23.14.46.21.68l.43,1.38.43,1.37.21.68.18.7.75,2.77.09.35.08.35.16.7.31,1.4.32,1.4.26,1.42.26,1.41.13.71.06.35.05.36.41,2.84a99.83,99.83,0,0,1,.78,11.47,103.52,103.52,0,0,1-5.53,33.91c-1.21,3.63-2.58,7.22-4.11,10.73s-3.21,7-5,10.34-3.74,6.68-5.8,9.91-4.22,6.39-6.49,9.47-4.63,6.1-7.08,9c-.44.53-.89,1-1.34,1.57.86,1.31,1.71,2.64,2.51,4l.54.89.53.91,1,1.82c.67,1.23,1.35,2.45,2,3.69.32.62.65,1.24,1,1.86h0c1-.81,2.08-1.65,3.1-2.5,2.12-1.78,4.17-3.64,6.16-5.55s3.94-3.88,5.82-5.91,3.65-4.14,5.37-6.31,3.34-4.4,4.88-6.69a115.46,115.46,0,0,0,8.21-14.38q1.8-3.75,3.33-7.59c1-2.57,2-5.17,2.8-7.8a125.05,125.05,0,0,0,4-16.07c.5-2.72.9-5.45,1.22-8.2s.54-5.5.67-8.26a118.73,118.73,0,0,0-.36-16.55,100.16,100.16,0,0,0-2.86-16.31,77.47,77.47,0,0,0-5.82-15.46,62.85,62.85,0,0,0-4.25-7.1c-1.56-2.28-3.16-4.53-4.86-6.71S837,89,835.11,87c-.94-1-1.93-2-2.94-2.92s-2.07-1.82-3.16-2.66a32.47,32.47,0,0,0-3.45-2.26l-.91-.49-.93-.44c-.31-.14-.63-.26-1-.39l-.24-.1-.24-.08-.49-.17c-.32-.12-.65-.2-1-.29l-.5-.13-.5-.1-.5-.09-.51-.06a6.9,6.9,0,0,0-1-.07,8.71,8.71,0,0,0-1.44.09c1.46,1.28,2.36,2.23,2.36,2.23s-1.24,5.82-5.68,1.38c-.23-.23-.48-.44-.72-.66l-.13.3-.11.33a5.6,5.6,0,0,0-.2.7,10.14,10.14,0,0,0-.21,1.48c0,.51,0,1,0,1.56s.1,1,.18,1.58a32.5,32.5,0,0,0,.67,3.2c.55,2.14,1.24,4.26,1.94,6.39l2.14,6.39c1.42,4.28,2.75,8.61,3.82,13a94.85,94.85,0,0,1,2.29,13.39,135.18,135.18,0,0,1-.2,27.06q-.69,6.73-2,13.37l-.16.83-.17.83-.35,1.65c-.11.56-.25,1.1-.37,1.65s-.25,1.1-.38,1.65c-.54,2.18-1.11,4.37-1.75,6.52-1.27,4.32-2.71,8.59-4.38,12.78a131.87,131.87,0,0,1-5.63,12.27l-.79,1.49c-.13.25-.26.5-.4.75l-.42.73-.42.74-.44.71-.45.72c-.15.24-.31.47-.47.7a63,63,0,0,1-4,5.41c-.79,1-1.61,1.89-2.44,2.81.28.33.57.65.85,1C800.07,223.91,801.77,226.14,803.37,228.45Z"/><path class="cls-1" d="M779.85,221.12c1.54.76,3.07,1.53,4.59,2.33,2,1.07,4.07,2.19,6.06,3.35,1.85-1.74,3.65-3.53,5.38-5.38-1.4-1.66-2.84-3.29-4.35-4.85s-2.95-2.9-4.48-4.29c-.68.92-1.36,1.83-2.06,2.73Q782.53,218.16,779.85,221.12Z"/><path class="cls-1" d="M645.25,203.64c1.48,2.24,3,4.47,4.55,6.65,1.8,2.5,3.68,5,5.6,7.35l.07,0,1.22-.76,1.25-.7,1.25-.71.63-.35.31-.18.32-.16,2.56-1.31c1.25-.61,2.51-1.18,3.78-1.75-1.21-1.29-2.39-2.61-3.53-4a64.4,64.4,0,0,1-4-5.4c-.15-.24-.32-.47-.47-.71l-.44-.71-.45-.72-.42-.74-.42-.73c-.14-.25-.26-.5-.4-.75l-.42-.8a94.82,94.82,0,0,0-10,5.83C645.87,203.19,645.57,203.42,645.25,203.64Z"/><path class="cls-1" d="M1331.3,705.65a714.88,714.88,0,0,0-2.17-100.22,608.76,608.76,0,0,0-17.29-98.69c-8.56-32.3-20.07-63.87-35.25-93.63a377.55,377.55,0,0,0-25.73-42.93c-9.43-13.82-19.15-27.44-29.41-40.65s-20.93-26.09-32.33-38.31c-5.72-6.1-11.68-12-17.79-17.65s-12.54-11-19.16-16.1a187.73,187.73,0,0,0-20.88-13.72c-1.84-1-3.64-2-5.5-2.95l-5.62-2.69c-1.91-.83-3.84-1.58-5.76-2.37-.48-.2-1-.41-1.44-.58l-1.47-.5-3-1c-1.94-.73-4-1.21-6-1.75-1-.26-2-.55-3-.79l-3-.59-3-.6c-1-.18-2-.24-3.07-.37a45.42,45.42,0,0,0-6.16-.41,52.91,52.91,0,0,0-8.81.51c8.91,7.79,14.32,13.54,14.32,13.54s-7.48,35.27-34.36,8.4c-1.4-1.41-2.86-2.74-4.35-4l-.77,1.79-.71,2a42.42,42.42,0,0,0-1.18,4.22,58,58,0,0,0-1.25,9,84.81,84.81,0,0,0,.09,9.42c.23,3.18.6,6.39,1.08,9.61,1,6.44,2.43,12.91,4.07,19.36,3.32,12.91,7.53,25.76,11.73,38.64l13,38.71c8.62,25.89,16.64,52.12,23.1,78.79a566.55,566.55,0,0,1,13.88,81.1c5.28,54.55,4.5,109.49-1.21,163.8-2.76,27.17-6.86,54.18-12.14,81l-1,5-1,5-2.1,10c-.67,3.35-1.5,6.66-2.25,10s-1.5,6.65-2.31,10q-1.11,4.5-2.25,9V853l-3.93-4.12c-1.41,5.2-2.86,10.4-4.4,15.56-7.71,26.15-16.43,52-26.53,77.33a798,798,0,0,1-34.08,74.29l-4.78,9c-.81,1.5-1.58,3-2.41,4.51l-2.54,4.44-2.54,4.45-2.71,4.34-2.7,4.35c-.91,1.44-1.89,2.84-2.84,4.26a392.75,392.75,0,0,1-24.51,32.73c-8.72,10.48-17.86,20.6-27.26,30.46s-19.07,19.47-28.91,28.88-19.83,18.68-29.94,27.8-20.3,18.16-30.55,27.13l-61.6,53.63c-20.44,18-40.7,36.17-60.49,54.85-4.93,4.68-9.86,9.37-14.73,14.12l-7.06,6.9a35.38,35.38,0,0,1,24.32,33.6,26.05,26.05,0,0,1-1.38,8.8c5.85-.79,11.7-1.63,17.54-2.56,8.28-1.19,16.51-2.73,24.76-4.13l12.32-2.36,6.16-1.2,6.14-1.32c16.38-3.41,32.61-7.5,48.71-12s32-9.7,47.72-15.48,31.17-12.14,46.31-19.26,30-14.89,44.39-23.32a587.62,587.62,0,0,0,81.81-57.87c12.8-10.76,25.21-22,37.28-33.57s23.85-23.49,35.2-35.77,22.15-25.08,32.51-38.2,20.25-26.63,29.54-40.54a696,696,0,0,0,49.74-87q10.84-22.62,20.17-45.93t17-47.22a754.36,754.36,0,0,0,23.77-94.13l-51-53.5v92.69H1254.9V722.52L1322,792.87q3.06-18.54,5.23-37.21Q1330.1,730.73,1331.3,705.65Zm-119.16,142L1201,820.78q-5,18.33-11,36.36-11,33-24.83,65t-30.39,62.57q-16.44,30.64-35.1,60t-39.3,57.33q-20.58,28-42.85,54.68t-46,52l-6,6.3-6,6.24c-4,4.18-8.11,8.26-12.17,12.38-8.2,8.17-16.47,16.27-24.9,24.2-16.85,15.84-34.11,31.3-52.24,45.66,8.93-7.35,17.57-15,26.1-22.83s16.94-15.73,25.23-23.79,16.41-16.27,24.47-24.56c4-4.18,8-8.32,11.94-12.55l5.92-6.33,5.86-6.39a1169.91,1169.91,0,0,0,87.55-107.3q20.24-28.11,38.69-57.41t34.63-59.91c10.8-20.39,20.89-41.14,30.08-62.29s17.33-42.74,24.56-64.62q6.93-20.69,12.47-41.8H1147l-14.4,33.84h-14.76l55.26-125.81,30,70.17a676.43,676.43,0,0,0,12.2-71.1,646,646,0,0,0,3.84-69l-.29-17.28c0-2.88-.25-5.75-.38-8.63l-.47-8.63c-.16-2.87-.27-5.75-.48-8.63l-.79-8.6-.8-8.61-.39-4.3c-.15-1.43-.37-2.86-.55-4.29l-2.26-17.14-.29-2.14-.37-2.13-.73-4.26-1.48-8.52-1.48-8.52-1.81-8.46-1.82-8.45-.91-4.23-.46-2.11-.53-2.1-4.31-16.75-1.08-4.19c-.38-1.39-.82-2.77-1.23-4.15l-2.49-8.29-2.49-8.28c-.43-1.38-.8-2.78-1.27-4.14l-1.41-4.09-5.63-16.37c-15.6-43.47-36.1-85.11-59.61-124.93l9,14.86c3,5,6,9.87,8.76,15l8.35,15.22,2.08,3.8,1.94,3.89,3.88,7.76c10.57,20.61,19.58,42,28,63.57l5.84,16.37,1.46,4.1c.49,1.36.87,2.76,1.32,4.14l2.58,8.3L1199,489c.43,1.38.88,2.76,1.28,4.15l1.13,4.2,4.49,16.8.56,2.1.49,2.12,1,4.24,1.91,8.48,1.91,8.49,1.58,8.55,1.57,8.56.78,4.28.39,2.14.31,2.15,2.45,17.23a587.93,587.93,0,0,1,4.71,69.42A651.09,651.09,0,0,1,1220,721.4a670.72,670.72,0,0,1-13.65,78.23l20.53,48Z"/><polygon class="cls-1" points="1172.72 753.12 1152.2 801.17 1192.88 801.17 1172.72 753.12"/><path class="cls-1" d="M640.87,226.39c.37.36.76.7,1.13,1.05l1.77-1.52,2.25-1.79.56-.45.57-.43,1.16-.84,1.16-.85.58-.43.6-.4,2.38-1.6.3-.2.3-.19.61-.38.7-.43c-1.94-2.38-3.83-4.79-5.65-7.26-1.6-2.17-3.12-4.39-4.61-6.63a77.66,77.66,0,0,0-11.23,9.47c-.78.81-1.53,1.65-2.26,2.5,1.25,1.53,2.53,3,3.87,4.47C636.93,222.51,638.88,224.48,640.87,226.39Z"/><path class="cls-1" d="M293.14,835q-1.29-5-2.53-10.07c-.8-3.31-1.54-6.64-2.31-10s-1.57-6.63-2.24-10l-.9-4.3V835Z"/><path class="cls-1" d="M617.31,237.45c-.36.83-.68,1.66-1,2.51l.38.4c.65.7,1.31,1.38,2,2.07,1.33,1.37,2.67,2.73,4,4.06s2.76,2.64,4.17,3.93c1,1,2.1,1.88,3.18,2.8,1.22-.87,2.44-1.77,3.65-2.68l5.35-4.1c.89-.68,1.78-1.36,2.68-2L633,236.83l-.22-.2q-2.61,2.75-5.07,5.63l1.84-2.2c.61-.73,1.22-1.47,1.87-2.17l1.24-1.37q-2.37-2.07-4.71-4.17-2.51-2.26-4.94-4.6l-.23-.22c-1.31,2-2.55,4.08-3.68,6.2Q618.15,235.56,617.31,237.45Z"/><path class="cls-1" d="M628.51,231.74c1.57,1.39,3.16,2.77,4.75,4.13l.1-.1.48-.53.5-.51,1-1c1.78-1.85,3.66-3.6,5.58-5.3l-1-1c-2-1.94-4-3.93-5.85-6-1.29-1.41-2.52-2.88-3.73-4.36-.75.91-1.47,1.83-2.17,2.77-1.65,2.21-3.26,4.47-4.77,6.78a2.26,2.26,0,0,0-.16.26l.34.33Q626,229.51,628.51,231.74Z"/><path class="cls-1" d="M614.23,252.56c0-.17-.07-.35-.09-.52l-.07-.53L614,251l0-.53c0-.35-.05-.7,0-1.05a21.79,21.79,0,0,1,.4-4.19,35.41,35.41,0,0,1,1-4.05c.13-.41.28-.81.42-1.21l-.37-.39-1-1q-3.93-4.17-7.6-8.59c-2.45-2.94-4.82-5.95-7.08-9s-4.44-6.23-6.49-9.47-4-6.54-5.8-9.91-3.49-6.83-5-10.34-2.9-7.1-4.1-10.73a103.26,103.26,0,0,1-5.54-33.91,99.83,99.83,0,0,1,.78-11.47l.41-2.84,0-.36.06-.35.13-.71.26-1.41.26-1.42.32-1.4.31-1.4.16-.7.08-.35.09-.35.75-2.77.18-.7.21-.68.43-1.37.43-1.38c.07-.22.13-.45.21-.68l.25-.68,1-2.7a107.82,107.82,0,0,1,4.62-10.5l.64-1.28.32-.65.34-.62,1.38-2.52c.45-.84,1-1.65,1.45-2.47l1.48-2.46A121.28,121.28,0,0,0,579.53,113l-.93,2.7-.23.68c-.08.23-.14.46-.21.68l-.41,1.37-.42,1.37c-.06.23-.14.46-.2.69l-.18.69-.71,2.77-.09.34-.07.35-.15.7-.3,1.4-.3,1.39-.25,1.41-.24,1.41-.12.7-.06.35,0,.36-.37,2.83c0,.24-.07.47-.09.71l-.07.71L574,138l-.13,1.42c0,.48-.05,1-.08,1.43l-.08,1.42c0,.48-.06,1-.06,1.43l-.05,2.85a108.57,108.57,0,0,0,.63,11.4,110.81,110.81,0,0,0,5,22.25c1.2,3.61,2.55,7.18,4.06,10.67s3.18,6.92,5,10.29,3.69,6.67,5.72,9.9,4.16,6.39,6.39,9.48a193.45,193.45,0,0,0,14.46,17.73l1,1.05.23.25c.29-.77.59-1.54.91-2.31.56-1.27,1.16-2.53,1.79-3.77,1.13-2.19,2.37-4.32,3.68-6.41-1.38-1.33-2.75-2.69-4.08-4.09-1.55-1.63-3.06-3.3-4.5-5a63,63,0,0,1-4-5.41c-.16-.23-.32-.46-.47-.7l-.44-.72-.45-.71-.42-.74-.42-.73c-.14-.25-.27-.5-.4-.75l-.79-1.49a131.87,131.87,0,0,1-5.63-12.27c-1.67-4.19-3.11-8.46-4.38-12.78-.64-2.15-1.21-4.34-1.75-6.52-.13-.55-.25-1.1-.38-1.65s-.26-1.09-.37-1.65l-.35-1.65-.17-.83-.16-.83q-1.32-6.63-2-13.37a135.18,135.18,0,0,1-.2-27.06,94.85,94.85,0,0,1,2.29-13.39c1.07-4.41,2.4-8.74,3.82-13l2.14-6.39c.7-2.13,1.39-4.25,1.94-6.39a32.5,32.5,0,0,0,.67-3.2c.08-.53.14-1.06.18-1.58s0-1.05,0-1.56a10.14,10.14,0,0,0-.21-1.48c0-.24-.12-.47-.19-.7l-.12-.33-.13-.3c-.24.22-.49.43-.72.66-4.44,4.44-5.67-1.38-5.67-1.38s.89-1,2.35-2.23a8.71,8.71,0,0,0-1.44-.09,7,7,0,0,0-1,.07l-.51.06-.5.09-.5.1-.5.13c-.33.09-.66.17-1,.29l-.49.17-.24.08-.24.1c-.32.13-.64.25-1,.39l-.93.44-.91.49a32.47,32.47,0,0,0-3.45,2.26c-1.09.84-2.14,1.74-3.16,2.66s-2,1.91-2.94,2.92c-1.88,2-3.66,4.14-5.34,6.33s-3.3,4.43-4.86,6.71a62.85,62.85,0,0,0-4.25,7.1,77.47,77.47,0,0,0-5.82,15.46,100.16,100.16,0,0,0-2.86,16.31,118.73,118.73,0,0,0-.36,16.55c.13,2.76.36,5.52.67,8.26s.72,5.48,1.22,8.2a125.05,125.05,0,0,0,4,16.07c.84,2.63,1.78,5.23,2.8,7.8s2.13,5.09,3.33,7.59a114.28,114.28,0,0,0,8.22,14.38c1.53,2.29,3.17,4.52,4.87,6.69s3.5,4.29,5.37,6.31,3.83,4,5.82,5.91,4,3.77,6.16,5.55A98.11,98.11,0,0,0,611,251.74c1.14.66,2.29,1.29,3.45,1.91a.11.11,0,0,1,0-.05C614.36,253.26,614.31,252.91,614.23,252.56Z"/><path class="cls-1" d="M795.55,247.61l-3.41-2-1.07,1c-2.79,2.61-5.64,5.17-8.63,7.54,1.47-1.21,2.9-2.48,4.31-3.77s2.8-2.6,4.17-3.93c.34-.33.67-.68,1-1l-2.2-1.29L779.28,238l-8.85,7.7c-3.37,3-6.72,6-10,9.06-.81.77-1.63,1.55-2.43,2.33l-1.21,1.18a5.92,5.92,0,0,0-1,1.28,6.09,6.09,0,0,0-.6,1.53,7.6,7.6,0,0,0-.21,1.64,9.1,9.1,0,0,0,.12,1.65,9.21,9.21,0,0,0,.34,1.49c2.71-.3,5.41-.62,8.1-1.05,1.37-.2,2.73-.45,4.09-.68l2-.39,1-.2,1-.22c2.7-.56,5.38-1.24,8-2s5.29-1.6,7.89-2.56,5.15-2,7.65-3.18,4.94-2.46,7.33-3.85l.16-.1-1.31-.71C799.48,249.83,797.51,248.73,795.55,247.61Z"/><path class="cls-1" d="M638.22,250.87l-2.65,2.1c-.89.7-1.79,1.4-2.72,2.07s-1.87,1.35-2.85,2a30.82,30.82,0,0,1-3.08,1.82l-.28.13c2.39.86,4.8,1.65,7.25,2.34,2.66.74,5.34,1.42,8.05,2l1,.22,1,.2,2,.39c1.36.23,2.72.48,4.09.68,2.69.43,5.39.75,8.1,1.05a9.21,9.21,0,0,0,.34-1.49,9.1,9.1,0,0,0,.12-1.65,7.6,7.6,0,0,0-.21-1.64,6.09,6.09,0,0,0-.6-1.53,5.92,5.92,0,0,0-1-1.28l-1.21-1.18c-.8-.78-1.62-1.56-2.43-2.33-3-2.87-6.14-5.66-9.27-8.42l-3.06,2.43Z"/><path class="cls-1" d="M741.08,217.52c-1.08,1-2.19,2-3.3,3.06,1.2.15,2.4.31,3.6.49l1.67.26.83.14.83.15.83.16.83.19.82.19c.28.06.55.14.82.21,1.69.45,3.34,1,5,1.57q4.29-4.94,8.23-10.17c-2.89-1-5.79-2-8.73-2.89-1.3-.39-2.61-.75-3.91-1.12-.9,1-1.81,2-2.73,3C744.3,214.38,742.71,216,741.08,217.52Z"/><path class="cls-1" d="M624,256.81c.49-.21,1-.44,1.45-.69,1-.5,1.88-1.07,2.8-1.67.59-.39,1.16-.8,1.73-1.21-2.57-2.1-5-4.32-7.47-6.59-1.39-1.31-2.76-2.65-4.11-4-.67-.68-1.35-1.35-2-2.05l-.26-.26c-.11.32-.24.65-.35,1a30.85,30.85,0,0,0-1,4c0,.34-.12.68-.16,1l-.12,1c0,.34,0,.68-.06,1,0,.08,0,.17,0,.25v.77c0,.35,0,.69,0,1,0,.17,0,.34,0,.51l.07.51.07.5c0,.17.07.34.11.5a8.52,8.52,0,0,0,.27,1c.06.21.15.41.23.62l.51.26c.65-1.54,1.15-2.5,1.15-2.5s5.66-.68,3.3,4.6c.72.32,1.44.65,2.18.95l.16,0A13.38,13.38,0,0,0,624,256.81Z"/><path class="cls-1" d="M806.56,252.08a5.83,5.83,0,0,0,1.55.54,6.43,6.43,0,0,0,1.64.08,7.54,7.54,0,0,0,1.62-.34,10.18,10.18,0,0,0,1.53-.65,9,9,0,0,0,1.29-.81c-.61-1.29-1.23-2.57-1.86-3.85q-3.23,2.43-6.64,4.59Z"/><path class="cls-1" d="M673.06,217c1.64,1.54,3.3,3,5,4.53,1.29,1.15,2.6,2.28,3.91,3.41,1.91-.52,3.82-1,5.74-1.45q6.59-1.54,13.3-2.45l.84-.12.83-.1,1.68-.22,1.68-.18,1.68-.17c2.24-.2,4.49-.38,6.74-.47,4.5-.2,9-.23,13.5,0,2.94.13,5.87.38,8.79.72,1.28-1.15,2.57-2.31,3.83-3.49,2.53-2.37,5-4.84,7.29-7.41-2.12-.58-4.25-1.14-6.39-1.64q-5.58-1.3-11.22-2.19c-3.77-.59-7.55-1.06-11.35-1.36s-7.61-.41-11.41-.36a110,110,0,0,0-22.66,2.55,104.67,104.67,0,0,0-11,3.1l-2.68,1c-.45.16-.89.35-1.33.53l-1.32.53-.55.23Q670.44,214.52,673.06,217Z"/><path class="cls-1" d="M754.2,225.08l-1.22-.43c-1.1,1.22-2.2,2.45-3.33,3.64l-1,1.05-1,1c-.66.69-1.34,1.36-2,2-1.36,1.35-2.72,2.69-4.11,4-2.79,2.62-5.64,5.17-8.63,7.54,1.47-1.21,2.9-2.48,4.31-3.77s2.8-2.6,4.17-3.93,2.71-2.69,4-4.06c.66-.69,1.32-1.37,2-2.07l1-1,1-1.06c1.06-1.16,2.11-2.35,3.15-3.54-1.54-.54-3.09-1-4.67-1.47l-.8-.22-.81-.19-.82-.19-.82-.16-.81-.16L743,222l-1.66-.27c-1.37-.2-2.74-.38-4.12-.55l-1,1q-2.5,2.26-5,4.48l-10.18,8.86c-3.38,3-6.72,6-10,9.06-.82.77-1.63,1.55-2.43,2.33l-.68.66.21.24a7.12,7.12,0,0,1,.6.84,7.87,7.87,0,0,1,.79,1.9,8.3,8.3,0,0,1,.29,2,11.14,11.14,0,0,1-.08,1.92q-.06.42-.15.84c1.52-.19,3-.4,4.54-.64s2.72-.45,4.09-.68l2-.39,1-.2,1-.21c2.71-.57,5.39-1.24,8.05-2s5.29-1.6,7.88-2.56,5.15-2,7.65-3.18,5-2.46,7.34-3.85a97.26,97.26,0,0,0,13.51-9.56l.79-.69c-.34-.18-.66-.37-1-.54A112.72,112.72,0,0,0,754.2,225.08Z"/><path class="cls-1" d="M778.32,220.74c-.58-.27-1.15-.54-1.73-.79l-1.31-.59-1.31-.57q-6-2.61-12.15-4.81c-1.49,1.93-3,3.85-4.57,5.72q-1.86,2.24-3.78,4.41c.32.11.65.21,1,.34,2.11.79,4.18,1.68,6.22,2.62s4.07,1.93,6.07,3c.42.22.84.46,1.27.68,1.61-1.4,3.2-2.83,4.75-4.32Q775.62,223.65,778.32,220.74Z"/><path class="cls-1" d="M708.17,252.47a7.6,7.6,0,0,0-.21-1.64,5.87,5.87,0,0,0-.6-1.52,6.08,6.08,0,0,0-.55-.78,6.08,6.08,0,0,0-.55.78,5.87,5.87,0,0,0-.6,1.52,7.6,7.6,0,0,0-.21,1.64,10.29,10.29,0,0,0,.11,1.66,11.11,11.11,0,0,0,.29,1.27l1,.11,1-.11a11.11,11.11,0,0,0,.29-1.27A10.29,10.29,0,0,0,708.17,252.47Z"/><path class="cls-1" d="M785.11,231.74q2.52-2.24,5-4.53l.35-.34-1-.56c-1.67-.92-3.37-1.81-5.07-2.67s-3.12-1.54-4.7-2.28l0,.07c-1.9,2.06-3.85,4-5.85,6-1.42,1.38-2.88,2.71-4.37,4,1.1.59,2.21,1.16,3.31,1.77,2,1.08,3.92,2.19,5.88,3.31l.61.36.86-.73Q782.6,234,785.11,231.74Z"/><path class="cls-1" d="M703.92,252.44a8.85,8.85,0,0,1,.29-2,7.87,7.87,0,0,1,.79-1.9,7.12,7.12,0,0,1,.6-.84l.21-.24-.67-.66c-.81-.78-1.62-1.56-2.44-2.33-3.27-3.09-6.61-6.09-10-9.06l-10.18-8.86-.24-.22-.73.23c-2.12.68-4.23,1.42-6.32,2.19-2.51.94-5,1.94-7.43,3l.37.39c1.33,1.37,2.68,2.73,4.05,4.06s2.75,2.64,4.16,3.93,2.84,2.56,4.31,3.77c-3-2.37-5.84-4.92-8.63-7.54-1.39-1.31-2.75-2.65-4.11-4l-.46-.47c-1.53.67-3,1.36-4.54,2.09-2,1-3.94,2-5.85,3.13-.59.34-1.16.7-1.74,1.06,1.7,1.14,3.41,2.25,5.17,3.28,2.39,1.39,4.84,2.68,7.34,3.85s5.06,2.23,7.65,3.18,5.22,1.82,7.88,2.56,5.34,1.42,8.05,2l1,.21,1,.2,2,.39c1.37.23,2.73.49,4.09.68s3,.45,4.54.64q-.09-.42-.15-.84A11.14,11.14,0,0,1,703.92,252.44Z"/><path class="cls-1" d="M641.17,228.63c-2.71,2.33-5.29,4.79-7.77,7.36l.19.17,9,7.63c2.46-1.8,5-3.55,7.53-5.2l1.69-1c-2-1.43-3.87-2.92-5.71-4.49S642.77,230.14,641.17,228.63Z"/><path class="cls-1" d="M666,230.37h0l-1-1-1-1.05q-3.93-4.17-7.6-8.59c-.37-.44-.72-.9-1.09-1.34l-.75.46-.61.37-.31.18-.3.2-2.38,1.57-.6.39-.58.42-1.16.83-1.16.84c-.2.14-.39.27-.58.42l-.57.44L644,226.24c-.59.47-1.18,1-1.76,1.45,1.55,1.45,3.13,2.88,4.76,4.25q3,2.51,6.15,4.77a89.89,89.89,0,0,1,8.86-4.64C663.34,231.48,664.64,230.92,666,230.37Z"/><path class="cls-1" d="M665.23,229.08l1,1,.1.11a133.18,133.18,0,0,1,14.64-5c-1.16-1-2.32-2-3.46-3.07-1.67-1.51-3.33-3-5-4.59s-3.22-3.14-4.77-4.77l-.51-.55-.07,0-1.31.59-1.3.59-.65.29-.64.31-2.56,1.28-.31.16-.32.17-.62.34-1.25.69-1.26.69-1.22.74h0c2.73,3.4,5.56,6.73,8.52,9.94Z"/><path class="cls-1" d="M657.57,198.39l.42.73.41.72.45.71.44.7c.15.24.31.46.47.7a64.64,64.64,0,0,0,4,5.33c1.19,1.41,2.42,2.77,3.69,4.11,2-.87,4.06-1.69,6.13-2.41a106.37,106.37,0,0,1,11-3.19,110.2,110.2,0,0,1,22.82-2.61q5.74-.06,11.48.39T730.36,205q5.67.93,11.26,2.26c2.26.54,4.5,1.15,6.73,1.78.5-.57,1-1.13,1.49-1.71a64.64,64.64,0,0,0,4-5.33c.16-.24.32-.46.47-.7l.44-.7.45-.71.41-.72.42-.73c.14-.24.27-.49.4-.73l.79-1.49,1.07-2.11-1-.44c-2.52-1.12-5.1-2.11-7.71-3s-5.25-1.73-7.92-2.43a115.27,115.27,0,0,0-16.27-3.1c-2.74-.32-5.5-.55-8.26-.68s-5.52-.16-8.28-.11a123.29,123.29,0,0,0-16.51,1.42c-2.73.41-5.45.92-8.15,1.51s-5.37,1.28-8,2.05A118.15,118.15,0,0,0,660.67,195c-1.32.6-2.63,1.22-3.93,1.87l.43.81C657.3,197.9,657.43,198.15,657.57,198.39Z"/><path class="cls-1" d="M667.61,1328.18l-7.29-7.13c-4.87-4.75-9.8-9.44-14.74-14.12-19.78-18.68-40-36.87-60.49-54.85l-61.6-53.63Q508.13,1185,493,1171.32T463,1143.52c-9.85-9.41-19.52-19-28.91-28.88s-18.54-20-27.26-30.46a395.09,395.09,0,0,1-24.52-32.73c-.94-1.42-1.92-2.82-2.83-4.26l-2.71-4.35-2.7-4.34-2.54-4.45-2.54-4.44c-.83-1.49-1.61-3-2.41-4.51l-4.79-9a803.22,803.22,0,0,1-34.08-74.29c-10.09-25.33-18.81-51.18-26.53-77.33-1.66-5.59-3.22-11.21-4.74-16.84H271.84V727.56h.7Q271,715.82,269.79,704c-5.7-54.31-6.48-109.25-1.2-163.8a567.92,567.92,0,0,1,13.87-81.1c6.47-26.67,14.48-52.9,23.11-78.79l13-38.71c4.2-12.88,8.41-25.73,11.72-38.64,1.65-6.45,3.08-12.92,4.07-19.36.49-3.22.86-6.43,1.09-9.61a84.81,84.81,0,0,0,.09-9.42,59.26,59.26,0,0,0-1.25-9,42.42,42.42,0,0,0-1.18-4.22l-.72-2-.77-1.79c-1.48,1.29-2.94,2.62-4.35,4-26.87,26.87-34.36-8.4-34.36-8.4s5.41-5.75,14.33-13.54a53,53,0,0,0-8.82-.51,45.27,45.27,0,0,0-6.15.41c-1,.13-2.06.19-3.07.37l-3,.6-3,.59c-1,.24-2,.53-3,.79-2,.54-4,1-6,1.75l-2.94,1-1.47.5c-.49.17-1,.38-1.45.58-1.91.79-3.85,1.54-5.75,2.37l-5.62,2.69c-1.86.94-3.67,2-5.5,2.95a187.73,187.73,0,0,0-20.88,13.72c-6.62,5.07-13,10.47-19.17,16.1s-12.07,11.55-17.78,17.65c-11.41,12.22-22.13,25.07-32.33,38.31s-20,26.83-29.42,40.65a377.48,377.48,0,0,0-25.72,42.93c-15.18,29.76-26.69,61.33-35.25,93.63a607.68,607.68,0,0,0-17.29,98.69,711.86,711.86,0,0,0-2.17,100.22Q52,719,53.13,732.24a55.92,55.92,0,0,1,15.63,9.36c11,9.18,20.52,24.48,20.52,46.08,0,24.91-12.14,38.39-20.77,45.82q7.71,34.93,18.68,69,7.69,23.88,17,47.22t20.17,45.93a694.8,694.8,0,0,0,49.74,87c9.28,13.91,19.21,27.39,29.54,40.54s21.13,25.94,32.51,38.2,23.13,24.18,35.19,35.77,24.48,22.81,37.29,33.57a587,587,0,0,0,81.81,57.87q21.66,12.65,44.39,23.32c15.13,7.12,30.62,13.47,46.31,19.26s31.6,11,47.71,15.48,32.34,8.61,48.72,12l6.14,1.32,6.16,1.2,12.32,2.36c8.25,1.4,16.47,2.94,24.76,4.13,14.93,2.38,30,4.21,45,5.92a22.88,22.88,0,0,1-3-12.16,35.23,35.23,0,0,1,7-21.14,32.72,32.72,0,0,0-8.3-12.23Zm-207.43-70.29c-8.42-7.93-16.69-16-24.89-24.2-4.06-4.12-8.17-8.2-12.17-12.38l-6-6.24-6-6.3q-23.79-25.3-46-52t-42.86-54.68q-20.6-28-39.29-57.33t-35.1-60q-16.46-30.66-30.39-62.57t-24.83-65q-1.33-4-2.61-8a66.57,66.57,0,0,1-9.21.64c-34.74,0-62.46-26.46-62.46-62.09,0-29.57,19-52.62,45.09-59.77q-.4-3.25-.78-6.51a651.1,651.1,0,0,1-3.52-69.52,590.08,590.08,0,0,1,4.72-69.42l2.44-17.23.32-2.15.39-2.14.78-4.28,1.57-8.56,1.58-8.55,1.91-8.49,1.9-8.48,1-4.24.48-2.12.56-2.1,4.5-16.8,1.12-4.2c.41-1.39.86-2.77,1.28-4.15l2.59-8.3,2.58-8.3c.44-1.38.83-2.78,1.32-4.14l1.46-4.1,5.83-16.37c8.38-21.59,17.39-43,27.95-63.57l3.88-7.76,1.94-3.89,2.09-3.8,8.35-15.22c2.72-5.11,5.78-10,8.75-15l9-14.86c-23.52,39.82-44,81.46-59.61,124.93L194.12,465l-1.41,4.09c-.48,1.36-.85,2.76-1.28,4.14l-2.49,8.28-2.48,8.29c-.41,1.38-.85,2.76-1.24,4.15l-1.07,4.19-4.31,16.75-.54,2.1-.46,2.11-.91,4.23-1.81,8.45-1.81,8.46-1.49,8.52-1.47,8.52-.74,4.26-.36,2.13-.29,2.14-2.26,17.14c-.19,1.43-.4,2.86-.55,4.29l-.4,4.3-.79,8.61-.79,8.6c-.22,2.88-.32,5.76-.49,8.63l-.47,8.63c-.13,2.88-.38,5.75-.38,8.63l-.28,17.28a646,646,0,0,0,3.84,69c.23,2,.48,4,.73,5.93a66.22,66.22,0,0,1,12.7-1.22c34.55,0,62.45,26.28,62.45,62.1,0,30.62-20.47,54.45-48.28,60.55q1.19,3.67,2.41,7.34,10.83,32.82,24.56,64.62c9.19,21.15,19.28,41.9,30.08,62.29s22.37,40.36,34.62,59.91,25.21,38.67,38.7,57.41a1169.91,1169.91,0,0,0,87.55,107.3l5.85,6.39,5.92,6.33c3.93,4.23,8,8.37,11.95,12.55,8.05,8.29,16.18,16.51,24.47,24.56s16.69,16,25.23,23.79,17.17,15.48,26.1,22.83C494.29,1289.19,477,1273.73,460.18,1257.89Z"/><path class="cls-1" d="M132,787.68c0,27.53,21.78,49.49,48.78,49.49a48.9,48.9,0,0,0,5.44-.31,668.38,668.38,0,0,1-21.09-96.09A49.22,49.22,0,0,0,132,787.68Z"/><path class="cls-1" d="M54.59,747.72c.27,2.65.54,5.3.84,7.94q2.88,24.92,7.38,49.62c.79,4.33,1.62,8.64,2.48,13,6-7.38,10.31-17.43,10.31-30.56C75.6,769.77,67.8,755.76,54.59,747.72Z"/><path class="cls-1" d="M229.59,787.68c0-27.54-21.78-49.5-48.77-49.5a48.46,48.46,0,0,0-11,1.26,669.1,669.1,0,0,0,21.38,96.61A49.13,49.13,0,0,0,229.59,787.68Z"/><path class="cls-2" d="M89.28,787.68c0-21.6-9.54-36.9-20.52-46.08a55.92,55.92,0,0,0-15.63-9.36q.65,7.75,1.46,15.48c13.21,8,21,22,21,40,0,13.13-4.26,23.18-10.31,30.56q1.53,7.65,3.22,15.26C77.14,826.07,89.28,812.59,89.28,787.68Z"/><path class="cls-2" d="M59.4,824.21C47.7,833.93,34.56,835,25,835H13.32V740.16H25A60.15,60.15,0,0,1,48,744.38q-.66-7.12-1.19-14.26a84.18,84.18,0,0,0-22.28-2.56H0V847.61H24.3c17.87,0,28.84-3.13,38.37-9.6q-1.55-7-3-14.07Z"/><path class="cls-2" d="M180.82,738.18c27,0,48.77,22,48.77,49.5a49.13,49.13,0,0,1-38.38,48.37c1.22,4.07,2.48,8.14,3.78,12.18,27.81-6.1,48.28-29.93,48.28-60.55,0-35.82-27.9-62.1-62.45-62.1a66.22,66.22,0,0,0-12.7,1.22q.8,6.33,1.71,12.64A48.46,48.46,0,0,1,180.82,738.18Z"/><path class="cls-2" d="M180.82,837.17c-27,0-48.78-22-48.78-49.49a49.22,49.22,0,0,1,33.13-46.91q-.91-6.42-1.72-12.86c-26.07,7.15-45.09,30.2-45.09,59.77,0,35.63,27.72,62.09,62.46,62.09a66.57,66.57,0,0,0,9.21-.64c-1.3-4.07-2.55-8.17-3.77-12.27A48.9,48.9,0,0,1,180.82,837.17Z"/><path class="cls-2" d="M281.24,743.77c.82,6.72,1.63,13.45,2.66,20.15l1.26,8.49V727.56H279.5c.21,2,.43,4.07.64,6.11C280.51,737,280.79,740.41,281.24,743.77Z"/><path class="cls-2" d="M318.27,847.61V835H297.55q1.53,6.32,3.19,12.6Z"/><path class="cls-2" d="M271.84,847.61h24.61q-1.69-6.29-3.31-12.6h-8V800.7L284,795l-1-5-1-5q-5.62-28.53-9.39-57.41h-.7Z"/><path class="cls-2" d="M402,738.18a51.14,51.14,0,0,1,20.7,4.68A59.17,59.17,0,0,1,438.39,754V737.46a56.58,56.58,0,0,0-35.46-11.88c-36,0-62.81,26.64-62.81,62.46,0,34.73,26.45,61.73,62.09,61.73a62.51,62.51,0,0,0,36.18-11.7V821.51a54.61,54.61,0,0,1-13.86,10.08,49.91,49.91,0,0,1-22.32,5.58c-22,0-48.42-16.38-48.42-48.95C353.79,760.5,374.31,738.18,402,738.18Z"/><polygon class="cls-2" points="536.23 835.01 487.27 835.01 487.27 788.39 534.79 788.39 534.79 775.79 487.27 775.79 487.27 740.16 536.23 740.16 536.23 727.56 473.95 727.56 473.95 847.61 536.23 847.61 536.23 835.01"/><path class="cls-2" d="M622,817.18c0,10.58,8.39,18.47,19.27,18.47,7.59,0,15.68-4.69,21.47-10.48l7.19,9.28h9.18L667.9,820a86.88,86.88,0,0,0,8.49-9.88L671,805.6a89.49,89.49,0,0,1-7.59,8.78l-13.88-17.87c4.29-3.59,3.69-2.79,5.39-4.29,5.29-4.59,6.19-9,6.19-12.08,0-6.69-4.79-13.38-14.08-13.38-9.58,0-14.47,7.09-14.47,14.08,0,4.49,2.09,8.48,6.59,14.27-1.4.9-7.69,4.8-11.19,8.29A19,19,0,0,0,622,817.18Zm25-44c3.5,0,7.19,2.19,7.19,6.89,0,2.29-.7,4.69-4.49,7.69l-4.39,3.39-3-4.09c-1.3-1.8-2.69-3.7-2.69-6.59A7.22,7.22,0,0,1,646.93,773.15Zm-12.88,34.34a60.92,60.92,0,0,1,9.39-6.89l14.78,19.08c-2.5,2.39-10,9.18-17.08,9.18a11.49,11.49,0,0,1-11.78-11.78C629.36,811.89,632.16,809.19,634.05,807.49Z"/><path class="cls-2" d="M823.32,760c0-14.58-7-22-10.8-24.84-8.82-7-20.88-7.56-27.54-7.56H763.39V847.61h29.87c8.28,0,19.26-.36,28.8-7.92a33.18,33.18,0,0,0,12.24-25.92c0-11.52-6.12-26.09-22.86-30.23C822.06,776.34,823.32,765.9,823.32,760Zm-46.61-19.8h10.43c3.79,0,23.22.36,23.22,20.16,0,18.54-16.56,20-23.58,20H776.71ZM821,813.41A20.23,20.23,0,0,1,813.06,830c-5.76,4.5-13.32,5-21,5h-15.3V792.18h13.68c9.53,0,15.83,1.08,20.33,3.59A19.45,19.45,0,0,1,821,813.41Z"/><path class="cls-2" d="M885,813.77H936.1l14,33.84H964.9L911.08,721.8,855.83,847.61h14.76Zm25.74-60.65,20.16,48H890.2Z"/><path class="cls-2" d="M1089.82,833.94q-1.9,7.48-3.93,14.95l3.93,4.12Z"/><path class="cls-2" d="M1089.82,727.56H1076.5v93.05l-93.6-98.09V847.61h13.32V754.92l86.32,90.46q4-15.4,7.28-31Z"/><path class="cls-2" d="M1201,820.78l11.13,26.83h14.76l-20.53-48Q1203.87,810.25,1201,820.78Z"/><path class="cls-2" d="M1173.08,721.8l-55.26,125.81h14.76l14.4-33.84h50.78q2.87-10.85,5.34-21.8Zm-.36,31.32,20.16,48H1152.2Z"/><path class="cls-2" d="M1254.9,847.61h13.32V754.92l51,53.5c.2-1,.41-2.09.6-3.14q1.13-6.19,2.16-12.41l-67.13-70.35Z"/><path class="cls-2" d="M1348.5,820.61l-20.89-21.89c-.43,2.58-.85,5.16-1.3,7.73s-1,5.22-1.46,7.82l37,38.74V727.56H1348.5Z"/><path class="cls-2" d="M1389.82,847.61h14.76l14.4-33.84h51.12l14,33.84h14.76L1445.08,721.8Zm34.38-46.44,20.52-48,20.16,48Z"/><path d="M671.88,1373.71l4,.46a59.78,59.78,0,0,0,2.09-9,58,58,0,0,0,.69-10,46.43,46.43,0,0,0-1.24-9.91,38.31,38.31,0,0,0-1.54-4.8,35.23,35.23,0,0,0-7,21.14A22.88,22.88,0,0,0,671.88,1373.71Z"/><path d="M715.31,1328l-.24.23a34.87,34.87,0,0,0-6.19,7.79,37.06,37.06,0,0,0-3.64,9.24,46.43,46.43,0,0,0-1.24,9.91,59,59,0,0,0,.68,10,61,61,0,0,0,2.09,9c10.5-1.18,21-2.41,31.48-3.82a26.05,26.05,0,0,0,1.38-8.8A35.38,35.38,0,0,0,715.31,1328Z"/><path d="M697.48,1377.32l-.22-.75-.39-1.45c-.24-1-.46-1.91-.66-2.86q-.6-2.84-1-5.7a69.29,69.29,0,0,1-.53-11.64,55.5,55.5,0,0,1,1.77-11.88,45.6,45.6,0,0,1,4.81-11.45,43,43,0,0,1,3.64-5.14l.21-.24-.88,0a35.21,35.21,0,0,0-21.73,7.47,46.47,46.47,0,0,1,3.68,9.38,55.5,55.5,0,0,1,1.77,11.88,68.25,68.25,0,0,1-.54,11.64c-.24,1.91-.57,3.81-1,5.7-.2,1-.42,1.9-.67,2.86l-.38,1.45-.23.75-.28.89-1.28,4a60.32,60.32,0,0,0,16.17,2.36l-2-6.38Z"/><path d="M707,1384h0l-6.62.6c1.27,0,2.55.06,3.85.06,8,0,15.4-.61,21.32-2.67-2,.23-4,.44-6,.65Z"/><path d="M818.71,79s-.9-1-2.36-2.23l-.57.08-.49.12-.25.06-.23.07c-.29.11-.57.23-.82.34-.07.08-.13.16-.2.23l0,0-.06.07-.13.13a3.33,3.33,0,0,0-.25.28l-.12.13-.11.15a6.09,6.09,0,0,0-.75,1.21v0c.24.22.49.43.72.66C817.47,84.85,818.71,79,818.71,79Z"/><path d="M811.36,76.91l.22-.14.24-.12a2.58,2.58,0,0,1,.48-.21l.24-.08.27-.09.3-.08.29,0,1.2-.11h.81a38.68,38.68,0,0,0-4-2.91,36.07,36.07,0,0,0-7.84-3.51c-1.32,0-4.35,3.44-3.25,4.5.87.84,5.59,1.55,9.71,4A5.77,5.77,0,0,1,811.36,76.91Z"/><path d="M817.79,76.71a6.9,6.9,0,0,1,1,.07l.51.06.5.09.5.1.5.13c.33.09.66.17,1,.29l.49.17.24.08.24.1c.32.13.64.25,1,.39l.93.44.91.49A32.47,32.47,0,0,1,829,81.38c1.09.84,2.14,1.74,3.16,2.66s2,1.91,2.94,2.92c1.89,2,3.66,4.14,5.34,6.33s3.3,4.43,4.86,6.71a62.85,62.85,0,0,1,4.25,7.1,77.47,77.47,0,0,1,5.82,15.46,100.16,100.16,0,0,1,2.86,16.31,118.73,118.73,0,0,1,.36,16.55c-.13,2.76-.36,5.52-.67,8.26s-.72,5.48-1.22,8.2a125.05,125.05,0,0,1-4,16.07c-.84,2.63-1.78,5.23-2.8,7.8s-2.13,5.09-3.33,7.59a115.46,115.46,0,0,1-8.21,14.38c-1.54,2.29-3.18,4.52-4.88,6.69s-3.5,4.29-5.37,6.31-3.83,4-5.82,5.91-4,3.77-6.16,5.55c-1,.85-2.05,1.69-3.1,2.5l.67,1.36c1.14-.89,2.27-1.8,3.37-2.74,2.14-1.81,4.21-3.7,6.21-5.64s4-3.93,5.85-6,3.68-4.21,5.41-6.41,3.36-4.47,4.9-6.8a114.35,114.35,0,0,0,8.24-14.58q1.8-3.78,3.34-7.68t2.79-7.89a125.56,125.56,0,0,0,4-16.23q.74-4.11,1.2-8.27t.63-8.33a117.69,117.69,0,0,0-.44-16.69,101.8,101.8,0,0,0-3-16.43,78.52,78.52,0,0,0-6-15.6,63.43,63.43,0,0,0-4.34-7.16c-1.59-2.27-3.22-4.52-4.95-6.7s-3.54-4.29-5.46-6.3c-1-1-2-2-3-2.91s-2.11-1.83-3.22-2.67a35.87,35.87,0,0,0-3.5-2.31A22,22,0,0,0,822,77c-.33-.12-.67-.21-1-.3l-.51-.14-.52-.11-.52-.11-.52-.08c-.35,0-.7-.11-1.06-.12a18.87,18.87,0,0,0-2.13-.1h-.29c.34.27.65.54.94.79A8.71,8.71,0,0,1,817.79,76.71Z"/><path d="M755.3,265.87l.17.1s0-.08,0-.12l-.13,0Z"/><path d="M799.88,218a63,63,0,0,0,4-5.41c.16-.23.32-.46.47-.7l.45-.72.44-.71.42-.74.42-.73c.14-.25.27-.5.4-.75l.79-1.49A131.87,131.87,0,0,0,813,194.43c1.67-4.19,3.11-8.46,4.38-12.78.64-2.15,1.21-4.34,1.75-6.52.13-.55.25-1.1.38-1.65s.26-1.09.37-1.65l.35-1.65.17-.83.16-.83q1.32-6.63,2-13.37a135.18,135.18,0,0,0,.2-27.06,94.85,94.85,0,0,0-2.29-13.39c-1.07-4.41-2.4-8.74-3.82-13l-2.14-6.39c-.7-2.13-1.39-4.25-1.94-6.39a32.5,32.5,0,0,1-.67-3.2c-.08-.53-.14-1.06-.18-1.58s0-1.05,0-1.56a10.14,10.14,0,0,1,.21-1.48,5.6,5.6,0,0,1,.2-.7l.11-.33.13-.3a16.61,16.61,0,0,0-2.25-1.62c-.08.1-.17.19-.24.29a6.5,6.5,0,0,0-.9,2,10.34,10.34,0,0,0-.32,2,17.89,17.89,0,0,0,0,1.94c0,.63.11,1.24.19,1.85a32.87,32.87,0,0,0,.73,3.5c.29,1.13.62,2.24,1,3.34s.7,2.17,1.07,3.24l1.13,3.2,1.14,3.17c.75,2.11,1.5,4.2,2.19,6.32s1.36,4.23,1.94,6.37c.3,1.07.57,2.14.83,3.21s.51,2.16.72,3.24q.66,3.26,1,6.55c.55,4.41.85,8.86,1,13.32.05,2.23.06,4.46,0,6.7s-.13,4.46-.29,6.7c-.07,1.11-.18,2.22-.27,3.34-.05.56-.11,1.11-.17,1.67s-.11,1.11-.18,1.67c-.14,1.11-.27,2.22-.44,3.33l-.25,1.66-.27,1.66a122.78,122.78,0,0,1-3,13.1,131.31,131.31,0,0,1-9.94,24.94l-.79,1.48c-.13.25-.26.5-.4.74l-.41.72-.42.73-.44.7-.45.71c-.15.24-.31.46-.46.69a65.47,65.47,0,0,1-4,5.34c-.77.92-1.57,1.82-2.37,2.71l.45.53C798.27,219.84,799.09,218.91,799.88,218Z"/><path d="M802.6,251.74c-2.39,1.39-4.84,2.67-7.33,3.85s-5.06,2.22-7.65,3.18-5.23,1.81-7.89,2.56-5.34,1.42-8,2l-1,.22-1,.2-2,.39c-1.36.23-2.72.48-4.09.68-2.69.43-5.39.75-8.1,1.05,0,0,0,.08,0,.12l-.17-.1h0l.13,0a9.21,9.21,0,0,1-.34-1.49,9.1,9.1,0,0,1-.12-1.65,7.6,7.6,0,0,1,.21-1.64,6.09,6.09,0,0,1,.6-1.53,5.92,5.92,0,0,1,1-1.28l1.21-1.18c.8-.78,1.62-1.56,2.43-2.33,3.27-3.09,6.62-6.09,10-9.06l8.85-7.7-.83-.49-8.71,7.39q-2.58,2.19-5.13,4.41c-1.7,1.48-3.38,3-5.06,4.5l-2.5,2.29-1.24,1.16-.15.15-.19.19c-.12.12-.23.25-.34.38a6.9,6.9,0,0,0-.6.85,7.61,7.61,0,0,0-.8,1.89,9.57,9.57,0,0,0-.29,2,11.2,11.2,0,0,0,.09,1.93c0,.31.09.63.16.94,0,.16.07.31.11.47l.06.24,0,.13,0,.14.34,1.07,1.19-.11h0l2.08-.22c.7-.08,1.39-.15,2.08-.24l2.08-.27c.69-.09,1.38-.2,2.07-.3,1.38-.2,2.76-.45,4.14-.68l2.06-.39,1-.21,1-.22c2.74-.57,5.46-1.26,8.15-2s5.37-1.65,8-2.63,5.22-2.06,7.76-3.27,5-2.52,7.44-3.95c.32-.19.63-.39.94-.59-.52-.27-1-.56-1.56-.84Z"/><path d="M805.06,251.32l.63.32q3.42-2.16,6.64-4.59c-.22-.45-.46-.9-.69-1.35q-3.64,2.75-7.55,5.12C804.41,251,804.73,251.16,805.06,251.32Z"/><path d="M785.66,232.35q2.51-2.26,4.94-4.6c.18-.16.34-.33.52-.5l-.69-.38-.35.34q-2.45,2.29-5,4.53T780,236.16l-.86.73.83.47.61-.53C782.3,235.35,784,233.86,785.66,232.35Z"/><path d="M790.5,226.8l.68.39c1.42-1.37,2.83-2.77,4.2-4.21l1-1-.45-.53C794.15,223.27,792.35,225.06,790.5,226.8Z"/><path d="M812.32,79.72a6.09,6.09,0,0,1,.75-1.21l.11-.15.12-.13a3.33,3.33,0,0,1,.25-.28l.13-.13.06-.07,0,0c.07-.07.13-.15.2-.23.25-.11.53-.23.82-.34l.23-.07.25-.06.49-.12.57-.08c-.29-.25-.6-.52-.94-.79h-.81l-1.2.11-.29,0-.3.08-.27.09-.24.08a2.58,2.58,0,0,0-.48.21l-.24.12-.22.14a5.77,5.77,0,0,0-1.3,1.22,16.61,16.61,0,0,1,2.25,1.62Z"/><path d="M795.18,242.65c.67-.68,1.35-1.35,2-2.05l1-1,1-1c1.76-1.86,3.46-3.78,5.13-5.71-.09-.14-.18-.28-.28-.42-1.68,2-3.38,3.94-5.14,5.86l-1,1.05-1,1.05c-.65.7-1.31,1.38-2,2.07s-1.49,1.49-2.23,2.24l.24.13C793.7,244.09,794.45,243.38,795.18,242.65Z"/><path d="M806.77,229.94c2.45-2.94,4.82-5.95,7.08-9s4.44-6.23,6.49-9.47,4-6.54,5.8-9.91,3.49-6.83,5-10.34,2.9-7.1,4.11-10.73a103.52,103.52,0,0,0,5.53-33.91,99.83,99.83,0,0,0-.78-11.47l-.41-2.84-.05-.36-.06-.35-.13-.71-.26-1.41-.26-1.42-.32-1.4-.31-1.4-.16-.7-.08-.35-.09-.35-.75-2.77-.18-.7-.21-.68-.43-1.37-.43-1.38c-.07-.22-.13-.45-.21-.68l-.24-.68-1-2.7a107.82,107.82,0,0,0-4.62-10.5l-.64-1.28-.32-.65-.34-.62-1.38-2.52c-.45-.84-1-1.65-1.45-2.47l-1.48-2.46A121.28,121.28,0,0,1,834.09,113l.93,2.7.23.68c.08.23.14.46.21.68l.42,1.37.41,1.37c.06.23.14.46.2.69l.18.69.71,2.77.09.34.07.35.15.7.3,1.4.3,1.39.25,1.41.24,1.41.12.7.06.35,0,.36.38,2.83.09.71.06.71.13,1.42.13,1.42c0,.48.06,1,.08,1.43l.08,1.42c0,.48.06,1,.06,1.43l.05,2.85a108.57,108.57,0,0,1-.63,11.4,110.81,110.81,0,0,1-5,22.25c-1.19,3.61-2.55,7.18-4.06,10.67s-3.18,6.92-5,10.29-3.69,6.67-5.72,9.9-4.16,6.39-6.39,9.48c-2.6,3.61-5.35,7.12-8.2,10.54.09.15.19.29.29.44C805.88,231,806.33,230.47,806.77,229.94Z"/><path d="M790.92,246.49q-2.05,2-4.17,3.93c-1.41,1.29-2.84,2.56-4.31,3.77,3-2.37,5.84-4.93,8.63-7.54l1.07-1-.22-.13C791.59,245.81,791.26,246.16,790.92,246.49Z"/><path d="M769.18,68.79s-.89-1-2.35-2.23l-.58.08-.49.12-.24.06-.23.08c-.29.11-.57.22-.83.34a2,2,0,0,1-.19.22l0,.05-.07.07-.12.13a3.15,3.15,0,0,0-.25.28l-.12.14-.12.14a6.54,6.54,0,0,0-.74,1.21v0c.24.21.49.43.72.66C768,74.62,769.18,68.79,769.18,68.79Z"/><path d="M761.84,66.67l.22-.14.24-.12a4,4,0,0,1,.47-.21l.25-.08.27-.09.3-.07.29-.06,1.2-.11h.81a39.81,39.81,0,0,0-4-2.91,35.61,35.61,0,0,0-7.85-3.5c-1.31,0-4.34,3.43-3.24,4.49.87.85,5.58,1.55,9.71,4A5.38,5.38,0,0,1,761.84,66.67Z"/><path d="M766.59,231.94a97.26,97.26,0,0,1-13.51,9.56c-2.39,1.39-4.84,2.68-7.34,3.85s-5.06,2.23-7.65,3.18-5.22,1.82-7.88,2.56-5.34,1.42-8.05,2l-1,.21-1,.2-2,.39c-1.37.23-2.73.49-4.09.68s-3,.45-4.54.64c0,0,0,.07,0,.1s-.07.32-.11.47l-.07.24,0,.13,0,.15-.2.62,1.11-.13,2.08-.26,2.07-.31c1.38-.2,2.76-.45,4.14-.68l2.06-.39,1-.2,1-.23c2.74-.57,5.46-1.26,8.15-2s5.36-1.65,8-2.63,5.23-2.07,7.76-3.27,5-2.53,7.44-4a98.52,98.52,0,0,0,13.68-9.77c.41-.34.81-.71,1.21-1.06l-1.36-.75Z"/><path d="M740.56,217c-1.26,1.18-2.55,2.34-3.83,3.49l1,.12c1.11-1,2.22-2,3.3-3.06,1.63-1.56,3.22-3.14,4.78-4.77.92-1,1.83-2,2.73-3l-.74-.2C745.54,212.13,743.09,214.6,740.56,217Z"/><path d="M704.62,256.91l.14.44,1.19-.11h0l.86-.09-1.22-.13Z"/><path d="M779.59,221.43l0-.07-.45-.22-.87-.4q-2.7,2.91-5.57,5.65c-1.55,1.49-3.14,2.92-4.75,4.32l1.37.74c1.49-1.32,3-2.65,4.37-4C775.74,225.48,777.69,223.49,779.59,221.43Z"/><path d="M735.58,221.5c-1.67,1.49-3.37,3-5.07,4.42l-10.29,8.74q-2.58,2.18-5.13,4.4c-1.7,1.48-3.39,3-5.06,4.5l-2.5,2.29-.72.68.52.48.16.15.18.19.14.15.68-.66c.8-.78,1.61-1.56,2.43-2.33,3.27-3.09,6.61-6.09,10-9.06l10.18-8.86q2.53-2.22,5-4.48l1-1-1.06-.12Z"/><path d="M705.45,252.47a7.6,7.6,0,0,1,.21-1.64,5.87,5.87,0,0,1,.6-1.52,6.08,6.08,0,0,1,.55-.78c-.15-.17-.3-.35-.47-.51l-.53-.52-.21.24a7.12,7.12,0,0,0-.6.84,7.87,7.87,0,0,0-.79,1.9,8.85,8.85,0,0,0-.29,2,11.14,11.14,0,0,0,.08,1.92q.06.42.15.84l1.7.2a11.11,11.11,0,0,1-.29-1.27A10.29,10.29,0,0,1,705.45,252.47Z"/><path d="M707.71,255.62l.06-.22-1,.11Z"/><path d="M756.45,197.66c-.13.24-.26.49-.4.73l-.42.73-.41.72-.45.71-.44.7c-.15.24-.31.46-.47.7a64.64,64.64,0,0,1-4,5.33c-.49.58-1,1.14-1.49,1.71l.72.21c.43-.49.87-1,1.29-1.49a64.4,64.4,0,0,0,4-5.4c.15-.24.32-.47.47-.71l.44-.71.45-.72.42-.74.42-.73c.14-.25.26-.5.4-.75l.79-1.49c.37-.71.72-1.42,1.08-2.13l-.57-.27-1.07,2.11Z"/><path d="M778.56,220.48h0l.76.37.53.26q2.68-3,5.14-6.11c.7-.9,1.38-1.81,2.06-2.73l-1-.9c-.69.94-1.4,1.88-2.12,2.79C782.22,216.34,780.44,218.46,778.56,220.48Z"/><path d="M768.27,66.47a7,7,0,0,1,1,.07c.17,0,.34,0,.51.06l.5.1.5.1a4.6,4.6,0,0,1,.5.13c.33.09.66.16,1,.28l.49.17.24.08.24.1,1,.39.93.44.91.49a30.05,30.05,0,0,1,3.44,2.27c1.1.84,2.15,1.73,3.17,2.66s2,1.91,2.94,2.91c1.88,2,3.65,4.14,5.34,6.33s3.3,4.43,4.86,6.72A62.72,62.72,0,0,1,800,96.86a77.33,77.33,0,0,1,5.82,15.47,100.93,100.93,0,0,1,2.86,16.3,118.77,118.77,0,0,1,.36,16.55c-.14,2.76-.36,5.52-.67,8.26s-.73,5.48-1.22,8.2a125.05,125.05,0,0,1-4,16.07q-1.27,3.94-2.8,7.8T797,193.1a114.28,114.28,0,0,1-8.22,14.38c-.59.89-1.22,1.77-1.85,2.64.34.29.67.6,1,.89.66-.92,1.32-1.85,1.94-2.8a115.57,115.57,0,0,0,8.24-14.58q1.8-3.78,3.33-7.68t2.79-7.88a124.77,124.77,0,0,0,4-16.23q.74-4.12,1.19-8.28c.31-2.77.52-5.54.64-8.33a119.27,119.27,0,0,0-.44-16.69,101.8,101.8,0,0,0-3-16.43,78.55,78.55,0,0,0-6-15.6,61,61,0,0,0-4.33-7.15c-1.59-2.28-3.22-4.53-4.95-6.71s-3.54-4.29-5.46-6.29c-1-1-2-2-3-2.92s-2.11-1.82-3.22-2.67a37,37,0,0,0-3.5-2.3,20.36,20.36,0,0,0-3.83-1.74,8.88,8.88,0,0,0-1-.31l-.51-.14-.52-.11-.52-.11-.53-.07a9.12,9.12,0,0,0-1.05-.13c-.7-.07-1.42-.1-2.14-.1h-.28c.34.27.65.54.94.79A9.86,9.86,0,0,1,768.27,66.47Z"/><path d="M763.43,184.19c1.67-4.18,3.11-8.45,4.38-12.77.64-2.16,1.21-4.34,1.75-6.53.13-.55.25-1.1.38-1.65s.26-1.09.37-1.64l.35-1.66.17-.82.16-.83c.87-4.43,1.55-8.89,2-13.38a135.08,135.08,0,0,0,.2-27,93.35,93.35,0,0,0-2.3-13.4c-1.06-4.41-2.39-8.74-3.81-13l-2.15-6.39c-.69-2.13-1.38-4.25-1.93-6.38-.27-1.07-.51-2.14-.67-3.2-.08-.53-.15-1.06-.18-1.59a13.59,13.59,0,0,1,0-1.56,8.94,8.94,0,0,1,.21-1.48,7,7,0,0,1,.19-.69l.12-.34.13-.29a16.69,16.69,0,0,0-2.25-1.63c-.08.1-.17.19-.24.29a6.44,6.44,0,0,0-.9,2,10.22,10.22,0,0,0-.32,2,15.5,15.5,0,0,0,0,1.93c0,.63.11,1.24.19,1.85a35,35,0,0,0,.72,3.5c.3,1.14.62,2.24,1,3.34S761.67,85,762,86l1.12,3.19,1.14,3.17c.75,2.11,1.51,4.21,2.2,6.32s1.35,4.23,1.94,6.37c.29,1.07.57,2.14.83,3.22s.5,2.15.72,3.24c.43,2.17.78,4.34,1,6.55.55,4.41.85,8.86,1,13.31,0,2.23.06,4.47,0,6.7s-.14,4.47-.3,6.7c-.06,1.11-.17,2.23-.26,3.34-.05.56-.12,1.12-.17,1.67s-.11,1.12-.18,1.67c-.14,1.11-.27,2.22-.44,3.33l-.25,1.66-.27,1.66a125.26,125.26,0,0,1-3,13.1,131.86,131.86,0,0,1-8.25,21.58l.57.26Q761.63,188.71,763.43,184.19Z"/><path d="M762.8,69.48a6.54,6.54,0,0,1,.74-1.21l.12-.14.12-.14a3.15,3.15,0,0,1,.25-.28l.12-.13.07-.07,0-.05a2,2,0,0,0,.19-.22c.26-.12.54-.23.83-.34l.23-.08.24-.06.49-.12.58-.08c-.29-.25-.6-.52-.94-.79h-.81l-1.2.11-.29.06-.3.07-.27.09-.25.08a4,4,0,0,0-.47.21l-.24.12-.22.14a5.38,5.38,0,0,0-1.3,1.22,16.69,16.69,0,0,1,2.25,1.63Z"/><path d="M749.36,228l-1,1.06-1,1c-.65.7-1.31,1.38-2,2.07-1.33,1.37-2.68,2.73-4,4.06s-2.76,2.64-4.17,3.93-2.84,2.56-4.31,3.77c3-2.37,5.84-4.92,8.63-7.54,1.39-1.31,2.75-2.65,4.11-4,.67-.68,1.35-1.35,2-2l1-1,1-1.05c1.13-1.19,2.23-2.42,3.33-3.64l-.47-.17C751.47,225.67,750.42,226.86,749.36,228Z"/><path d="M764.33,210.67q3.4-4.63,6.49-9.47l.32-.52-.63-.36-.3.49q-3,4.84-6.39,9.48c-.74,1-1.5,2-2.25,3l.59.21C762.89,212.58,763.62,211.63,764.33,210.67Z"/><path d="M776.62,191.28q2.71-5.06,5-10.33t4.1-10.74a109.54,109.54,0,0,0,5-22.42,105,105,0,0,0,.58-11.49,97.9,97.9,0,0,0-.77-11.47l-.41-2.84-.05-.36-.07-.35-.12-.71-.26-1.41-.26-1.41-.32-1.41-.32-1.4-.15-.7-.08-.35-.1-.35-.74-2.77-.18-.69-.21-.69L786.8,108l-.43-1.37c-.07-.23-.14-.46-.22-.69l-.24-.67-1-2.71a110,110,0,0,0-4.62-10.5l-.64-1.28-.32-.64-.34-.63L777.65,87c-.45-.85-1-1.66-1.45-2.48l-1.48-2.45a120.83,120.83,0,0,1,9.85,20.63l.93,2.71.23.67c.08.23.14.46.21.69l.41,1.36.41,1.37.21.69.18.69.71,2.77.09.34.07.35.15.7.3,1.4.3,1.4.25,1.4.24,1.41.12.7.06.36,0,.35.37,2.83c0,.24.07.47.09.71l.07.71.13,1.42.13,1.42c0,.48.05,1,.08,1.43l.08,1.42c0,.48.06.95.06,1.43l0,2.85a105.8,105.8,0,0,1-.64,11.4A110.11,110.11,0,0,1,785,170c-1.2,3.61-2.55,7.18-4.06,10.67s-3.19,6.93-5,10.29c-1.47,2.77-3,5.48-4.67,8.16l.64.36C773.55,196.76,775.14,194.05,776.62,191.28Z"/><path d="M753,223.94l.47.17q1.92-2.18,3.78-4.41c1.56-1.87,3.08-3.79,4.57-5.72l-.59-.21Q757.29,219,753,223.94Z"/><path d="M594.92,79s1.23,5.82,5.67,1.38c.23-.23.48-.44.72-.66v0a6.09,6.09,0,0,0-.75-1.21l-.11-.15-.12-.13a3.33,3.33,0,0,0-.25-.28l-.13-.13-.06-.07,0,0a2.11,2.11,0,0,1-.19-.23l-.83-.34-.23-.07-.25-.06-.49-.12-.57-.08C595.81,78.08,594.92,79,594.92,79Z"/><path d="M598.74,76H599l1.2.11.29,0,.3.08.27.09.24.08a2.58,2.58,0,0,1,.48.21l.24.12.22.14a5.77,5.77,0,0,1,1.3,1.22c4.12-2.49,8.84-3.2,9.71-4,1.1-1.06-1.93-4.5-3.24-4.5a35.85,35.85,0,0,0-7.85,3.51,39.81,39.81,0,0,0-4,2.91h.53Z"/><path d="M554.65,163.8q.47,4.15,1.2,8.27a124,124,0,0,0,4,16.23q1.26,4,2.78,7.89t3.34,7.68a115.57,115.57,0,0,0,8.24,14.58c1.54,2.33,3.19,4.59,4.9,6.8s3.52,4.35,5.41,6.41,3.85,4.06,5.85,6,4.07,3.83,6.21,5.64a97.83,97.83,0,0,0,13.67,9.77c1.59.94,3.21,1.8,4.84,2.64l0-.06a20.73,20.73,0,0,1-.59-2c-1.16-.62-2.31-1.25-3.45-1.91a98.11,98.11,0,0,1-13.51-9.56c-2.12-1.78-4.17-3.64-6.16-5.55s-3.94-3.88-5.82-5.91-3.65-4.14-5.37-6.31-3.34-4.4-4.87-6.69a114.28,114.28,0,0,1-8.22-14.38q-1.8-3.75-3.33-7.59c-1-2.57-2-5.17-2.8-7.8a125.05,125.05,0,0,1-4-16.07c-.5-2.72-.9-5.45-1.22-8.2s-.54-5.5-.67-8.26a118.73,118.73,0,0,1,.36-16.55,100.16,100.16,0,0,1,2.86-16.31,77.47,77.47,0,0,1,5.82-15.46,62.85,62.85,0,0,1,4.25-7.1c1.56-2.28,3.16-4.53,4.86-6.71S576.63,89,578.51,87c.94-1,1.93-2,2.94-2.92s2.07-1.82,3.16-2.66a32.47,32.47,0,0,1,3.45-2.26l.91-.49.93-.44c.31-.14.63-.26,1-.39l.24-.1.24-.08.49-.17c.32-.12.65-.2,1-.29l.5-.13.5-.1.5-.09.51-.06a7,7,0,0,1,1-.07,8.71,8.71,0,0,1,1.44.09c.29-.25.6-.52.94-.79h-.29a18.87,18.87,0,0,0-2.13.1c-.36,0-.71.08-1.06.12l-.52.08-.52.11-.52.11-.51.14c-.34.09-.68.18-1,.3a22,22,0,0,0-3.82,1.74,35.87,35.87,0,0,0-3.5,2.31c-1.11.84-2.18,1.74-3.22,2.67s-2,1.91-3,2.91c-1.92,2-3.74,4.12-5.46,6.3s-3.36,4.43-4.95,6.7a63.43,63.43,0,0,0-4.34,7.16,78.52,78.52,0,0,0-6,15.6,101.8,101.8,0,0,0-3,16.43,117.69,117.69,0,0,0-.44,16.69Q554.2,159.64,554.65,163.8Z"/><path d="M615.28,254.06c.1.24.21.48.33.71l.18-.45Z"/><path d="M628,232.35q2.34,2.1,4.71,4.17l.59-.65c-1.59-1.36-3.18-2.74-4.75-4.13s-3.34-3-5-4.53l-.34-.33c-.14.21-.27.43-.41.65l.23.22Q625.45,230.09,628,232.35Z"/><path d="M620.1,256.74c-.14.29-.27.59-.39.89l.32,0h.36c.24,0,.48,0,.72,0a10.4,10.4,0,0,0,1.31-.25c-.74-.3-1.46-.63-2.18-.95C620.19,256.53,620.16,256.62,620.1,256.74Z"/><path d="M633.4,236c-.21.21-.41.43-.61.64l.22.2,8.72,7.59.85-.63-9-7.63Z"/><path d="M653.18,254.75c.81.77,1.63,1.55,2.43,2.33l1.21,1.18a5.92,5.92,0,0,1,1,1.28,6.09,6.09,0,0,1,.6,1.53,7.6,7.6,0,0,1,.21,1.64,9.1,9.1,0,0,1-.12,1.65,9.21,9.21,0,0,1-.34,1.49l.13,0h0l-.17.1s0-.08,0-.12c-2.71-.3-5.41-.62-8.1-1.05-1.37-.2-2.73-.45-4.09-.68l-2-.39-1-.2-1-.22c-2.71-.56-5.39-1.24-8.05-2-2.45-.69-4.86-1.48-7.25-2.34-.46.23-.92.45-1.4.65l-.73.28.93.37c2.63,1,5.3,1.87,8,2.63s5.41,1.46,8.15,2l1,.22,1,.21,2.06.39c1.38.23,2.76.48,4.14.68.69.1,1.38.21,2.07.3L654,267c.69.09,1.38.16,2.08.24l2.08.22h0l1.19.11.34-1.07,0-.14,0-.13.06-.24a4,4,0,0,0,.11-.47c.07-.31.12-.63.16-.94a10.28,10.28,0,0,0,.09-1.93,9.57,9.57,0,0,0-.29-2,8,8,0,0,0-.79-1.89,8.27,8.27,0,0,0-.61-.85c-.11-.13-.22-.26-.34-.38l-.18-.19-.16-.15-1.24-1.16-2.5-2.29c-1.68-1.52-3.36-3-5.06-4.5-1.4-1.22-2.82-2.43-4.23-3.64l-.87.67C647,249.09,650.15,251.88,653.18,254.75Z"/><path d="M658.32,265.87h0l-.13,0s0,.08,0,.12Z"/><path d="M601.44,80.05l.12.33c.07.23.14.46.19.7a10.14,10.14,0,0,1,.21,1.48c0,.51,0,1,0,1.56s-.1,1-.18,1.58a32.5,32.5,0,0,1-.67,3.2c-.55,2.14-1.24,4.26-1.94,6.39L597,101.68c-1.42,4.28-2.75,8.61-3.82,13a94.85,94.85,0,0,0-2.29,13.39,135.18,135.18,0,0,0,.2,27.06q.69,6.73,2,13.37l.16.83.17.83.35,1.65c.11.56.25,1.1.37,1.65s.25,1.1.38,1.65c.54,2.18,1.11,4.37,1.75,6.52,1.27,4.32,2.71,8.59,4.38,12.78a131.87,131.87,0,0,0,5.63,12.27l.79,1.49c.13.25.26.5.4.75l.42.73.42.74.45.71.44.72c.15.24.31.47.47.7a63,63,0,0,0,4,5.41c1.44,1.73,3,3.4,4.5,5,1.33,1.4,2.7,2.76,4.08,4.09.14-.21.26-.43.4-.65a109.35,109.35,0,0,1-8.46-8.9,65.47,65.47,0,0,1-4-5.34c-.15-.23-.31-.45-.46-.69l-.45-.71-.44-.7-.42-.73-.41-.72c-.14-.24-.27-.49-.4-.74l-.79-1.48a131.31,131.31,0,0,1-9.94-24.94,122.78,122.78,0,0,1-3-13.1l-.27-1.66-.25-1.66c-.17-1.11-.3-2.22-.44-3.33-.07-.56-.12-1.11-.18-1.67s-.12-1.11-.17-1.67c-.09-1.12-.2-2.23-.26-3.34-.17-2.24-.25-4.47-.3-6.7s0-4.47,0-6.7c.12-4.46.42-8.91,1-13.32.27-2.2.61-4.38,1.05-6.55q.33-1.62.72-3.24c.26-1.07.54-2.14.83-3.21q.89-3.21,1.94-6.37c.69-2.12,1.45-4.21,2.19-6.32l1.15-3.17,1.12-3.2c.37-1.07.74-2.14,1.07-3.24s.67-2.21,1-3.34a35.54,35.54,0,0,0,.72-3.5c.08-.61.15-1.22.19-1.85a17.89,17.89,0,0,0,0-1.94,10.34,10.34,0,0,0-.32-2,6.5,6.5,0,0,0-.9-2c-.07-.1-.16-.19-.24-.29a16.61,16.61,0,0,0-2.25,1.62Z"/><path d="M597.84,76.88l.49.12.25.06.23.07.83.34a2.11,2.11,0,0,0,.19.23l0,0,.06.07.13.13a3.33,3.33,0,0,1,.25.28l.12.13.11.15a6.09,6.09,0,0,1,.75,1.21v0a16.61,16.61,0,0,1,2.25-1.62,5.77,5.77,0,0,0-1.3-1.22l-.22-.14-.24-.12a2.58,2.58,0,0,0-.48-.21l-.24-.08-.27-.09-.3-.08-.29,0L599,76h-.81c-.34.27-.65.54-.94.79Z"/><path d="M618.44,242.65c1.35,1.35,2.72,2.69,4.11,4,2.42,2.27,4.9,4.49,7.47,6.59l0,0c-1.08-.92-2.14-1.85-3.18-2.8q-2.11-1.93-4.17-3.93c-1.37-1.33-2.71-2.69-4-4.06-.66-.69-1.32-1.37-2-2.07l-.38-.4c0,.12-.09.25-.14.38l.26.26C617.09,241.3,617.77,242,618.44,242.65Z"/><path d="M615.71,239.31l-1-1.05a193.45,193.45,0,0,1-14.46-17.73c-2.23-3.09-4.36-6.26-6.39-9.48s-3.94-6.53-5.72-9.9-3.45-6.79-5-10.29-2.86-7.06-4.06-10.67a110.81,110.81,0,0,1-5-22.25,108.57,108.57,0,0,1-.63-11.4l.05-2.85c0-.48,0-.95.06-1.43l.08-1.42c0-.48,0-1,.08-1.43L574,138l.13-1.42.07-.71c0-.24.06-.47.09-.71l.37-2.83,0-.36.06-.35.12-.7.24-1.41.25-1.41.3-1.39.3-1.4.15-.7.07-.35.09-.34.71-2.77.18-.69c.06-.23.14-.46.2-.69l.42-1.37.41-1.37c.07-.22.13-.45.21-.68l.23-.68.93-2.7a121.28,121.28,0,0,1,9.85-20.64l-1.48,2.46c-.49.82-1,1.63-1.45,2.47l-1.38,2.52-.34.62-.32.65-.64,1.28a107.82,107.82,0,0,0-4.62,10.5l-1,2.7-.25.68c-.08.23-.14.46-.21.68l-.43,1.38-.43,1.37-.21.68-.18.7-.75,2.77-.09.35-.08.35-.16.7-.31,1.4-.32,1.4-.26,1.42-.26,1.41-.13.71-.06.35,0,.36-.41,2.84a99.83,99.83,0,0,0-.78,11.47,103.26,103.26,0,0,0,5.54,33.91c1.2,3.63,2.57,7.22,4.1,10.73s3.21,7,5,10.34,3.75,6.68,5.8,9.91,4.22,6.39,6.49,9.47,4.63,6.1,7.08,9,5,5.81,7.6,8.59l1,1,.37.39c.05-.13.1-.27.14-.4Z"/><path d="M644.44,68.79s1.23,5.83,5.67,1.39q.36-.34.72-.66v0a6.54,6.54,0,0,0-.74-1.21l-.11-.14a1.79,1.79,0,0,0-.13-.14,3,3,0,0,0-.24-.28l-.13-.13-.07-.07,0-.05a2,2,0,0,1-.19-.22c-.26-.12-.54-.23-.83-.34l-.23-.08-.24-.06-.49-.12-.57-.08C645.33,67.84,644.44,68.79,644.44,68.79Z"/><path d="M648.26,65.78h.28l1.2.11L650,66l.3.07.27.09.25.08a4,4,0,0,1,.47.21l.24.12.22.14a5.38,5.38,0,0,1,1.3,1.22c4.13-2.49,8.84-3.19,9.71-4,1.1-1.06-1.93-4.49-3.24-4.49a35.82,35.82,0,0,0-7.85,3.5,39.81,39.81,0,0,0-4,2.91h.53Z"/><path d="M639.88,227.42l1,1,1.08-1c-.37-.35-.76-.69-1.13-1.05-2-1.91-3.94-3.88-5.81-5.91-1.34-1.44-2.62-2.94-3.87-4.47-.3.35-.6.7-.89,1.06,1.21,1.48,2.44,3,3.73,4.36C635.93,223.49,637.88,225.48,639.88,227.42Z"/><path d="M651,69.81l.12.34a7,7,0,0,1,.19.69,8.94,8.94,0,0,1,.21,1.48,11.65,11.65,0,0,1,0,1.56c0,.53-.1,1.06-.18,1.59-.16,1.06-.4,2.13-.67,3.2-.54,2.13-1.24,4.25-1.93,6.38l-2.15,6.39c-1.42,4.28-2.75,8.61-3.81,13a93.35,93.35,0,0,0-2.3,13.4,135.08,135.08,0,0,0,.2,27.05c.46,4.49,1.14,9,2,13.38l.16.83.17.82.35,1.66c.11.55.25,1.1.37,1.64s.25,1.1.38,1.65c.54,2.19,1.11,4.37,1.75,6.53,1.27,4.32,2.72,8.59,4.38,12.77a132.13,132.13,0,0,0,5.58,12.16l.55-.3a131.33,131.33,0,0,1-9.88-24.82,125.26,125.26,0,0,1-3-13.1l-.27-1.66-.25-1.66c-.17-1.11-.3-2.22-.44-3.33-.07-.55-.12-1.11-.18-1.67s-.12-1.11-.17-1.67c-.09-1.11-.2-2.23-.26-3.34-.16-2.23-.25-4.47-.3-6.7s0-4.47,0-6.7c.12-4.45.42-8.9,1-13.31.27-2.21.62-4.38,1-6.55q.33-1.64.72-3.24c.26-1.08.54-2.15.83-3.22q.89-3.21,1.94-6.37c.7-2.11,1.45-4.21,2.2-6.32l1.14-3.17L651.58,86c.37-1.07.74-2.15,1.08-3.25s.66-2.2,1-3.34a35,35,0,0,0,.72-3.5c.08-.61.15-1.22.19-1.85a15.5,15.5,0,0,0,0-1.93,10.22,10.22,0,0,0-.32-2,6.21,6.21,0,0,0-.9-2c-.07-.1-.16-.19-.24-.29a16.69,16.69,0,0,0-2.25,1.63Z"/><path d="M706.13,247.16l.16-.15.52-.48-.72-.68c-.82-.77-1.66-1.53-2.5-2.29-1.67-1.51-3.36-3-5.06-4.5s-3.41-2.95-5.13-4.4l-10.12-8.59-1,.3.24.22,10.18,8.86c3.38,3,6.72,6,10,9.06.82.77,1.63,1.55,2.44,2.33l.67.66.14-.15Z"/><path d="M709.7,252.44a8.3,8.3,0,0,0-.29-2,7.87,7.87,0,0,0-.79-1.9,7.12,7.12,0,0,0-.6-.84l-.21-.24-.53.52c-.17.16-.32.34-.47.51a6.08,6.08,0,0,1,.55.78,5.87,5.87,0,0,1,.6,1.52,7.6,7.6,0,0,1,.21,1.64,10.29,10.29,0,0,1-.11,1.66,11.11,11.11,0,0,1-.29,1.27l1.7-.2q.09-.42.15-.84A11.14,11.14,0,0,0,709.7,252.44Z"/><path d="M705.91,255.62l.9-.11-1-.11Z"/><path d="M672.54,217.52c1.62,1.55,3.28,3.08,5,4.59,1.14,1,2.3,2,3.46,3.07l1-.27c-1.31-1.13-2.62-2.26-3.91-3.41-1.68-1.49-3.34-3-5-4.53s-3.45-3.32-5.1-5.05l-.7.28.51.55C669.32,214.38,670.91,216,672.54,217.52Z"/><path d="M629.69,214.17c-1.71-2.17-3.35-4.39-4.88-6.69a115.53,115.53,0,0,1-8.22-14.38c-1.19-2.49-2.31-5-3.33-7.59s-2-5.17-2.8-7.8a125.05,125.05,0,0,1-4-16.07q-.73-4.08-1.22-8.2c-.31-2.74-.53-5.5-.67-8.26a118.77,118.77,0,0,1,.36-16.55,100.93,100.93,0,0,1,2.86-16.3,77.33,77.33,0,0,1,5.82-15.47,62.72,62.72,0,0,1,4.25-7.09c1.56-2.29,3.17-4.54,4.86-6.72s3.46-4.31,5.34-6.33q1.43-1.5,2.94-2.91c1-.93,2.07-1.82,3.17-2.66a29.32,29.32,0,0,1,3.45-2.27l.9-.49.93-.44,1-.39.24-.1.24-.08.49-.17c.32-.12.65-.19,1-.28a4.6,4.6,0,0,1,.5-.13l.5-.1.5-.1c.17,0,.34,0,.51-.06a7,7,0,0,1,1-.07,10.08,10.08,0,0,1,1.45.09c.28-.25.6-.52.93-.79h-.28c-.72,0-1.43,0-2.14.1a9.41,9.41,0,0,0-1,.13l-.53.07-.52.11-.51.11-.51.14a8.44,8.44,0,0,0-1,.31,20.36,20.36,0,0,0-3.83,1.74,37,37,0,0,0-3.5,2.3c-1.11.85-2.18,1.74-3.22,2.67s-2,1.92-3,2.92c-1.92,2-3.74,4.11-5.46,6.29s-3.36,4.43-4.95,6.71a61,61,0,0,0-4.33,7.15,78.55,78.55,0,0,0-6,15.6,101.8,101.8,0,0,0-3,16.43,120.82,120.82,0,0,0-.44,16.69c.12,2.79.33,5.56.64,8.33s.7,5.53,1.19,8.28a126.41,126.41,0,0,0,4,16.23q1.26,4,2.79,7.88t3.33,7.68a115.57,115.57,0,0,0,8.24,14.58c1.54,2.33,3.19,4.59,4.91,6.8.38.5.79,1,1.18,1.47l.89-1.06C630.37,215,630,214.59,629.69,214.17Z"/><path d="M657,198.7l.42.73.42.74.45.72.44.71c.15.24.32.47.47.71a64.4,64.4,0,0,0,4,5.4c1.14,1.37,2.32,2.69,3.53,4l.68-.3c-1.27-1.34-2.5-2.7-3.69-4.11a64.64,64.64,0,0,1-4-5.33c-.16-.24-.32-.46-.47-.7l-.44-.7-.45-.71-.41-.72-.42-.73c-.14-.24-.27-.49-.4-.73l-.43-.81-.55.3.42.8C656.75,198.2,656.87,198.45,657,198.7Z"/><path d="M642.27,227.69l-1.1.94c1.6,1.51,3.23,3,4.92,4.43s3.75,3.06,5.71,4.49c.46-.28.91-.57,1.38-.84q-3.16-2.27-6.15-4.77C645.4,230.57,643.82,229.14,642.27,227.69Z"/><path d="M706.81,257.15l.86.09h0l1.19.11.14-.44-1,.11Z"/><path d="M704.37,256.14l0-.13-.07-.24c0-.15-.07-.31-.11-.47s0-.07,0-.1c-1.52-.19-3-.4-4.54-.64s-2.72-.45-4.09-.68l-2-.39-1-.2-1-.21c-2.71-.57-5.39-1.24-8.05-2s-5.29-1.6-7.88-2.56-5.15-2-7.65-3.18-5-2.46-7.34-3.85c-1.76-1-3.47-2.14-5.17-3.28l-1.09.67-.31.21c1.89,1.3,3.81,2.56,5.8,3.73q3.63,2.14,7.44,4c2.53,1.2,5.13,2.28,7.76,3.27s5.29,1.86,8,2.63,5.41,1.45,8.15,2l1,.23,1,.2,2.07.39c1.37.23,2.75.48,4.13.68l2.07.31,2.08.26,1.11.13-.2-.62Z"/><path d="M709.25,256.14l0-.13.07-.24c0-.15.07-.31.11-.47s0-.07,0-.1l-1.7.2-.06.22h.13l-.16.11,0-.12-.9-.11-.9.11a.56.56,0,0,0,0,.12l-.17-.11h.13l-.06-.22-1.7-.2s0,.07,0,.1.07.32.11.47l.07.24,0,.13,0,.15.2.62,1,.11,1.22.13L708,257l1-.11.2-.62Z"/><path d="M707.49,247.16l-.16-.15-.52-.48-.52.48-.16.15-.18.19-.14.15.53.52c.17.16.32.34.47.51.15-.17.3-.35.47-.51l.53-.52-.14-.15Z"/><path d="M705.78,255.63l.17.11a.56.56,0,0,1,0-.12Z"/><path d="M707.84,255.63h-.13l0,.12Z"/><path d="M647.37,66.64l.49.12.24.06.23.08c.29.11.57.22.83.34a2,2,0,0,0,.19.22l0,.05.07.07.13.13a3,3,0,0,1,.24.28,1.79,1.79,0,0,1,.13.14l.11.14a6.54,6.54,0,0,1,.74,1.21v0a16.69,16.69,0,0,1,2.25-1.63,5.38,5.38,0,0,0-1.3-1.22l-.22-.14-.24-.12a4,4,0,0,0-.47-.21l-.25-.08-.27-.09L650,66l-.29-.06-1.2-.11h-.81c-.33.27-.65.54-.93.79Z"/><path d="M643.41,200.81c-2-3.23-3.94-6.53-5.72-9.9s-3.45-6.79-5-10.29-2.86-7.06-4.06-10.67a110.11,110.11,0,0,1-4.95-22.25,105.8,105.8,0,0,1-.64-11.4l0-2.85c0-.48,0-.95.06-1.43l.08-1.42c0-.48,0-.95.08-1.43l.13-1.42.13-1.42.07-.71c0-.24.06-.47.09-.71l.37-2.83,0-.35.06-.36.12-.7.24-1.41.25-1.4.3-1.4.3-1.4.15-.7.08-.35.08-.34.72-2.77.17-.69.21-.69.41-1.37.41-1.36c.07-.23.13-.46.21-.69l.23-.67.93-2.71a121.59,121.59,0,0,1,9.85-20.63l-1.48,2.45c-.49.82-1,1.63-1.45,2.48l-1.37,2.51-.35.63-.32.64-.64,1.28a112.57,112.57,0,0,0-4.62,10.5l-1,2.71-.24.67c-.08.23-.15.46-.22.69l-.43,1.37-.42,1.37c-.07.23-.15.46-.22.69l-.18.69-.74,2.77-.1.35-.08.35-.15.7-.32,1.4-.31,1.41-.27,1.41-.25,1.41-.13.71-.07.35-.05.36-.4,2.84a95.8,95.8,0,0,0-.78,11.47,107.56,107.56,0,0,0,.58,11.49,110.21,110.21,0,0,0,5,22.42q1.82,5.46,4.1,10.74t5,10.33q2.71,5.07,5.8,9.92c.46.72.94,1.43,1.41,2.14l.58-.41C644.33,202.22,643.86,201.52,643.41,200.81Z"/><path d="M649.8,210.29c-1.57-2.18-3.07-4.41-4.55-6.65l-.57.4c1.49,2.24,3,4.46,4.61,6.63,1.82,2.47,3.71,4.88,5.65,7.26l.46-.29C653.48,215.24,651.6,212.79,649.8,210.29Z"/><path d="M666.21,230.12l-1-1-1-1.06c-3-3.21-5.79-6.54-8.52-9.94l-.47.28c.37.44.72.9,1.09,1.34q3.68,4.41,7.6,8.59l1,1.05,1,1h0l.35-.14Z"/><path d="M668,232.41c1.36,1.35,2.72,2.69,4.11,4,2.79,2.62,5.64,5.17,8.63,7.54-1.47-1.21-2.9-2.48-4.31-3.77s-2.8-2.6-4.16-3.93-2.72-2.69-4.05-4.06l-.37-.39-.31.14Z"/><path d="M617.12,259.29l-.19-.18a4.4,4.4,0,0,1-.35-.39l-.16-.2-.17-.23c-.06-.08-.11-.17-.17-.26a2.15,2.15,0,0,1-.14-.26l-.49-1.1a1.45,1.45,0,0,1-.11-.26l-.09-.25-.09-.25a38.8,38.8,0,0,0-1.46,4.71,35.85,35.85,0,0,0-.76,8.56c.42,1.24,4.66,3,5.3,1.61.52-1.11-.35-5.79.67-10.5a5.57,5.57,0,0,1-1.58-.84Z"/><path d="M620.24,256.42c2.36-5.28-3.3-4.6-3.3-4.6s-.5,1-1.15,2.5c.85.43,1.7.86,2.57,1.27C619,255.88,619.61,256.14,620.24,256.42Z"/><path d="M616.85,256.6l.16.19a1.69,1.69,0,0,1,.27.11l.07,0,.08,0,.17.08a2.44,2.44,0,0,0,.34.14l.17.07.18.06.18.05c-.26-.12-.53-.22-.79-.35S617.13,256.74,616.85,256.6Z"/><path d="M620.24,256.42c-.63-.28-1.26-.54-1.88-.83-.87-.41-1.72-.84-2.57-1.27l-.18.45a5,5,0,0,0,.26.52l.27.42c0,.07.09.14.14.21a1.43,1.43,0,0,0,.14.2c.14.17.28.33.43.48s.55.29.83.42.53.23.79.35a5.73,5.73,0,0,0,1.2.26h0c.12-.3.25-.6.39-.89C620.16,256.62,620.19,256.53,620.24,256.42Z"/><path d="M791.92,245.48l.81-.81-2.49-1.4L780,237.36l-.72.63,10.44,6.2Z"/><path d="M793,244.8l-.83.81,3.41,2c2,1.12,3.93,2.22,5.9,3.32l1.31.71,1.33-.82-2-1C799,248.17,796,246.5,793,244.8Z"/><path d="M760.66,227.07c-2-.94-4.11-1.83-6.22-2.62-.32-.13-.65-.23-1-.34-.16.18-.33.35-.49.54l1.22.43a112.72,112.72,0,0,1,12.18,5.63c.34.17.66.36,1,.54l.62-.54c-.43-.22-.85-.46-1.27-.68Q763.73,228.49,760.66,227.07Z"/><path d="M663,234c1.49-.73,3-1.42,4.54-2.09-.52-.52-1-1-1.54-1.57-1.32.55-2.62,1.11-3.92,1.7a89.89,89.89,0,0,0-8.86,4.64c.72.52,1.46,1,2.19,1.51.58-.36,1.15-.72,1.74-1.06C659,236,661,235,663,234Z"/><path d="M814.25,251l0-.19-.1.07.06.12Z"/><path d="M650.11,238.59c-2.57,1.65-5.07,3.4-7.53,5.2l1.3,1.1.9.77,1.33-1c1.77-1.35,3.56-2.66,5.39-3.91.82-.55,1.64-1.09,2.47-1.62-.73-.51-1.46-1-2.17-1.55Z"/><path d="M814.19,250.9l.1-.07,0,.19h0l-.06-.12a9,9,0,0,1-1.29.81,10.18,10.18,0,0,1-1.53.65,7.54,7.54,0,0,1-1.62.34,6.43,6.43,0,0,1-1.64-.08,5.83,5.83,0,0,1-1.55-.54l-.87-.44c-.45.28-.91.57-1.37.84l.11.06,1.5.8.2.1.23.11a4,4,0,0,0,.48.2,6.78,6.78,0,0,0,1,.3,7.41,7.41,0,0,0,2,.13,9.47,9.47,0,0,0,2-.36,11.7,11.7,0,0,0,1.79-.71,8.52,8.52,0,0,0,.84-.46c.14-.08.28-.16.41-.25l.21-.14.11-.08.12-.09.9-.67-.49-1.09h0l-.89-1.89c-.3-.63-.59-1.26-.9-1.89l-.25-.51c-.45.35-.9.67-1.35,1C813,248.33,813.58,249.61,814.19,250.9Z"/><path d="M748,222.37c-.27-.07-.54-.15-.82-.21l-.82-.19-.83-.19-.83-.16-.83-.15-.83-.14-1.67-.26c-1.2-.18-2.4-.34-3.6-.49-.2.19-.4.38-.61.56,1.38.17,2.75.35,4.12.55L743,222l.83.13.81.16.82.16.82.19.81.19.8.22c1.58.42,3.13.93,4.67,1.47l.49-.54C751.35,223.36,749.7,222.82,748,222.37Z"/><path d="M772.83,200l-.93-.53c-.26.42-.5.84-.76,1.25l.93.54a96.75,96.75,0,0,1,13.44,9.67l.54.49c.31-.41.61-.84.91-1.26-.15-.13-.29-.27-.45-.4A98.57,98.57,0,0,0,772.83,200Z"/><path d="M633.7,250.54c-1.21.91-2.43,1.81-3.65,2.68.37.33.75.65,1.13,1l-1.16-.95c-.57.41-1.14.82-1.73,1.21-.92.6-1.85,1.17-2.8,1.67-.48.25-1,.48-1.45.69a13.38,13.38,0,0,1-1.46.52l-.16,0c1.18.49,2.38,1,3.59,1.4.2.08.42.14.63.22l.28-.13A30.82,30.82,0,0,0,630,257c1-.65,1.92-1.32,2.85-2s1.83-1.37,2.72-2.07l2.65-2.1,2.63-2.11,3.06-2.43-.72-.64-1.46-1.27c-.9.66-1.79,1.34-2.68,2Z"/><path d="M812,242.81c-.64-1.24-1.32-2.46-2-3.69l-1-1.82-.53-.91-.54-.89c-.8-1.35-1.65-2.68-2.51-4l-1.13,1.31c.76,1.16,1.49,2.34,2.2,3.54l.54.89.52.89,1,1.8c.66,1.21,1.34,2.42,2,3.65.38.7.73,1.41,1.08,2.11.46-.34.92-.67,1.37-1h0C812.69,244.05,812.36,243.43,812,242.81Z"/><path d="M770.51,200.32l.75-1.25c-1.91-1.09-3.83-2.15-5.78-3.14s-4-2-6-2.86c-.2.42-.41.84-.62,1.26,2,.91,4,1.86,5.94,2.87S768.64,199.23,770.51,200.32Z"/><path d="M623.36,226.62c1.51-2.31,3.12-4.57,4.77-6.78.7-.94,1.42-1.86,2.17-2.77l-.49-.59c-.78,1-1.54,1.93-2.26,2.93-1.64,2.24-3.23,4.51-4.73,6.85l-.1.16.48.46A2.26,2.26,0,0,1,623.36,226.62Z"/><path d="M791.53,216.57c1.51,1.56,3,3.19,4.35,4.85l1.11-1.19c-1.4-1.63-2.82-3.23-4.32-4.76s-3.09-3-4.71-4.46c-.3.43-.6.85-.91,1.27C788.58,213.67,790.09,215.09,791.53,216.57Z"/><path d="M615.05,253.44a8.52,8.52,0,0,1-.27-1c0-.16-.08-.33-.11-.5l-.07-.5-.07-.51c0-.17,0-.34,0-.51,0-.34,0-.68,0-1v-.77c0-.08,0-.17,0-.25,0-.35,0-.69.06-1l.12-1c0-.34.11-.68.16-1a30.85,30.85,0,0,1,1-4c.11-.32.24-.65.35-1l-.37-.38c-.14.4-.29.8-.42,1.21a35.41,35.41,0,0,0-1,4.05,21.79,21.79,0,0,0-.4,4.19c0,.35,0,.7,0,1.05l0,.53.07.52.07.53c0,.17.06.35.09.52.08.35.13.7.23,1a.11.11,0,0,0,0,.05l.81.41C615.2,253.85,615.11,253.65,615.05,253.44Z"/><path d="M616.85,237.25c-.32.77-.62,1.54-.91,2.31l.37.4c.32-.85.64-1.68,1-2.51q.84-1.89,1.8-3.72c1.13-2.12,2.37-4.18,3.68-6.2l-.47-.46c-1.31,2.09-2.55,4.22-3.68,6.41C618,234.72,617.41,236,616.85,237.25Z"/><path d="M644.79,202.93l.46.71c.32-.22.62-.45.94-.66a94.82,94.82,0,0,1,10-5.83l-.37-.69-.05-.11a98.52,98.52,0,0,0-10.06,5.92C645.4,202.48,645.1,202.71,644.79,202.93Z"/><path d="M778.56,236.53c-2-1.12-3.91-2.23-5.88-3.31-1.1-.61-2.21-1.18-3.31-1.77l-.63.55c1.18.64,2.37,1.27,3.54,1.93,2,1.11,3.9,2.23,5.84,3.37l.33.2.72-.61Z"/><path d="M618.91,260.29c.12,0,.23.1.35.13a6.53,6.53,0,0,0,2.14.22,10.82,10.82,0,0,0,2-.36c.38-.11.74-.23,1.1-.36-1.65-.63-3.28-1.32-4.9-2A16.12,16.12,0,0,0,618.91,260.29Z"/><path d="M802,229.39c.69,1,1.35,2,2,3,.38-.44.75-.88,1.12-1.33-.58-.88-1.17-1.76-1.77-2.62-1.6-2.31-3.3-4.54-5.08-6.7-.28-.34-.57-.66-.85-1L796.33,222c.23.28.47.54.7.82C798.77,224.91,800.44,227.12,802,229.39Z"/><path d="M656.74,196.85c1.3-.65,2.61-1.27,3.93-1.87a118.15,118.15,0,0,1,15.54-5.73c2.66-.77,5.34-1.46,8-2.05s5.42-1.1,8.15-1.51a123.29,123.29,0,0,1,16.51-1.42c2.76-.05,5.52,0,8.28.11s5.52.36,8.26.68a115.27,115.27,0,0,1,16.27,3.1c2.67.7,5.31,1.53,7.92,2.43s5.19,1.91,7.71,3l1,.44.62-1.25-1-.46c-2.56-1.12-5.18-2.12-7.82-3s-5.32-1.73-8-2.43a115.43,115.43,0,0,0-16.46-3q-4.17-.47-8.35-.66c-2.79-.11-5.58-.14-8.37-.07a125.33,125.33,0,0,0-16.64,1.51q-4.12.65-8.21,1.56t-8.09,2.11a118.09,118.09,0,0,0-15.64,5.84c-1.33.62-2.66,1.26-4,1.92l.06.12Z"/><path d="M714.44,219.75c-2.25.09-4.5.27-6.74.47l-1.68.17-1.68.18-1.68.22-.83.1L701,221q-6.71.92-13.3,2.45c-1.92.44-3.83.93-5.74,1.45l1.16,1,.17.15c1.57-.48,3.13-.95,4.72-1.37,1.07-.3,2.16-.56,3.24-.83l1.64-.39c.54-.12,1.09-.26,1.64-.37,1.09-.23,2.18-.47,3.29-.66l1.65-.31,1.65-.28a122.6,122.6,0,0,1,13.36-1.46,132.54,132.54,0,0,1,21.64.62l.62-.56c-2.92-.34-5.85-.59-8.79-.72C723.45,219.52,718.94,219.55,714.44,219.75Z"/><path d="M615.08,255.71l.08.2s0-.09.05-.13Z"/><path d="M644.68,204l-.47-.7A77,77,0,0,0,632.9,213c-.76.79-1.49,1.61-2.2,2.44l.49.59c.73-.85,1.48-1.69,2.26-2.5A77.66,77.66,0,0,1,644.68,204Z"/><path d="M666.31,230.23l1.5,1.57c2.45-1.07,4.92-2.07,7.43-3,2.09-.77,4.2-1.51,6.32-2.19l.73-.23L681,225.18A133.18,133.18,0,0,0,666.31,230.23Z"/><path d="M805.06,251.32c-.33-.16-.65-.33-1-.5l-1.33.82c.52.28,1,.57,1.56.84.46-.27.92-.56,1.37-.84Z"/><polygon points="780 237.36 779.17 236.89 778.45 237.5 779.28 237.99 780 237.36"/><path d="M811.64,245.7c.23.45.47.9.69,1.35.45-.34.9-.66,1.35-1l-.67-1.36C812.56,245,812.1,245.36,811.64,245.7Z"/><path d="M796.33,222l1.11-1.19-.45-.53-1.11,1.19Z"/><path d="M805.43,231.51c-.1-.15-.2-.29-.29-.44-.37.45-.74.89-1.12,1.33.1.14.19.28.28.42Z"/><path d="M792.14,245.61l.83-.81-.24-.13-.81.81Z"/><path d="M758.88,194.33c.21-.42.42-.84.62-1.26l-.57-.26-.62,1.25Z"/><path d="M768,230.71l-.62.54,1.36.75.63-.55Z"/><path d="M786.05,211.38l1,.9c.31-.42.61-.84.91-1.27-.33-.29-.66-.6-1-.89C786.66,210.54,786.36,211,786.05,211.38Z"/><path d="M736.73,220.46l-.62.56,1.06.12c.21-.18.41-.37.61-.56Z"/><path d="M771.9,199.43l-.64-.36-.75,1.25.63.36C771.4,200.27,771.64,199.85,771.9,199.43Z"/><path d="M752.51,224.48l.47.17c.16-.19.33-.36.49-.54l-.47-.17Z"/><path d="M642.58,243.79l-.85.63,1.46,1.27.72.64.87-.67-.9-.77Z"/><path d="M615.61,254.77c-.12-.23-.23-.47-.33-.71l-.81-.41a20.73,20.73,0,0,0,.59,2l0,.06.13.07C615.34,255.42,615.48,255.09,615.61,254.77Z"/><path d="M626.64,259c-.21-.08-.43-.14-.63-.22-1.21-.44-2.41-.91-3.59-1.4a10.4,10.4,0,0,1-1.31.25c-.24,0-.48,0-.72,0H620l-.32,0c0,.09-.07.17-.1.25,1.62.72,3.25,1.41,4.9,2l.73-.28C625.72,259.44,626.18,259.22,626.64,259Z"/><path d="M622.79,227.53c.14-.22.27-.44.41-.65l-.48-.46c-.14.22-.26.44-.4.65Z"/><path d="M615.94,239.56c0,.13-.09.27-.14.4l.37.38c.05-.13.1-.26.14-.38Z"/><path d="M631.18,254.19c-.38-.32-.76-.64-1.13-1l0,0Z"/><path d="M655.82,196.46l.37.69.55-.3-.36-.68-.06-.12-.55.3Z"/><path d="M655.37,238.22c-.73-.5-1.47-1-2.19-1.51-.47.27-.92.56-1.38.84.71.53,1.44,1,2.17,1.55l.31-.21Z"/><path d="M631.19,216l-.49-.59-.89,1.06.49.59C630.59,216.71,630.89,216.36,631.19,216Z"/><path d="M683.11,225.92l-1.16-1-1,.27,1.34,1.19,1-.3Z"/><path d="M644.79,202.93l-.58.41.47.7.57-.4Z"/><path d="M666,230.37c.5.53,1,1,1.54,1.57l.31-.14-1.5-1.57Z"/><path d="M618.47,257.37l-.18-.05-.18-.06-.17-.07a2.44,2.44,0,0,1-.34-.14l-.17-.08-.08,0-.07,0a1.69,1.69,0,0,0-.27-.11l-.16-.19-1.64-.82s0,.09-.05.13l.09.25.09.25a1.45,1.45,0,0,0,.11.26l.49,1.1a2.15,2.15,0,0,0,.14.26c.06.09.11.18.17.26l.17.23.16.2a4.4,4.4,0,0,0,.35.39l.19.18.21.16a5.57,5.57,0,0,0,1.58.84,16.12,16.12,0,0,1,.7-2.41Z"/><path d="M616.28,255.92c0-.07-.1-.14-.14-.21l-.27-.42a5,5,0,0,1-.26-.52c-.13.32-.27.65-.4,1l1.64.82c-.15-.15-.29-.31-.43-.48A1.43,1.43,0,0,1,616.28,255.92Z"/><path d="M618.47,257.37l1.14.51c0-.08.07-.16.1-.25h0A5.73,5.73,0,0,1,618.47,257.37Z"/><path d="M631.43,237.89c-.65.7-1.26,1.44-1.87,2.17l-1.84,2.2q2.46-2.88,5.07-5.63l-.12-.11Z"/><path d="M794.38,229.16c-1-.68-2.13-1.33-3.2-2l-.06.06C792.21,227.87,793.31,228.5,794.38,229.16Z"/><path d="M774,218.79l1.31.57,1.31.59c.58.25,1.15.52,1.73.79l.24-.25c-.61-.29-1.21-.59-1.82-.87l-1.3-.6-1.31-.6q-5.22-2.35-10.6-4.39l-1.37-.5-.34.45Q768,216.19,774,218.79Z"/><path d="M784.34,223.64c1.7.86,3.4,1.75,5.07,2.67l1,.56.07-.07c-2-1.16-4-2.28-6.06-3.35-1.52-.8-3.05-1.57-4.59-2.33l-.21.24Q782,222.47,784.34,223.64Z"/><path d="M668.51,211.69l1.32-.53c.44-.18.88-.37,1.33-.53l2.68-1a104.67,104.67,0,0,1,11-3.1A110,110,0,0,1,707.48,204c3.8,0,7.61.07,11.41.36s7.58.77,11.35,1.36,7.5,1.32,11.22,2.19c2.14.5,4.27,1.06,6.39,1.64l.5-.57c-2.23-.63-4.47-1.24-6.73-1.78Q736,205.89,730.36,205T719,203.57q-5.73-.45-11.48-.39a110.2,110.2,0,0,0-22.82,2.61,106.37,106.37,0,0,0-11,3.19c-2.07.72-4.12,1.54-6.13,2.41.16.18.32.36.49.53Z"/><path d="M752.5,210.88c2.94.89,5.84,1.86,8.73,2.89l.34-.45c-2.94-1.09-5.89-2.11-8.88-3-1.2-.37-2.41-.72-3.62-1.07l-.48.56C749.89,210.13,751.2,210.49,752.5,210.88Z"/><path d="M655.75,218.08l1.22-.74,1.26-.69,1.25-.69.62-.34.32-.17.31-.16,2.56-1.28.64-.31.65-.29,1.3-.59,1.31-.59.07,0-.47-.51c-1.27.57-2.53,1.14-3.78,1.75l-2.56,1.31-.32.16-.31.18-.63.35-1.25.71-1.25.7-1.22.76-.07,0c.12.15.23.3.35.44Z"/><path d="M641.17,228.63l-.25-.23c-1.92,1.7-3.8,3.45-5.58,5.3l-1,1-.5.51-.48.53-.1.1.14.12C635.88,233.42,638.46,231,641.17,228.63Z"/><path d="M644,226.24l2.25-1.76.57-.44c.19-.15.38-.28.58-.42l1.16-.84,1.16-.83.58-.42.6-.39,2.38-1.57.3-.2.31-.18.61-.37.75-.46-.34-.43-.7.43-.61.38-.3.19-.3.2-2.38,1.6-.6.4-.58.43-1.16.85-1.16.84-.57.43-.56.45-2.25,1.79L642,227.44l.27.25C642.85,227.2,643.44,226.71,644,226.24Z"/><path d="M791.12,227.25l.06-.06-.68-.39-.07.07Z"/><path d="M779.19,221.14l.45.22.21-.24-.53-.26-.76-.37-.24.25Z"/><path d="M748.59,209.76l.48-.56-.72-.21-.5.57Z"/><path d="M761.82,214l.34-.45-.59-.21-.34.45Z"/><path d="M633.26,235.87l-.59.65.12.11c.2-.21.4-.43.61-.64Z"/><path d="M668,211.92c-.17-.17-.33-.35-.49-.53l-.68.3.47.51Z"/><path d="M642.27,227.69l-.27-.25-1.08,1,.25.23Z"/><path d="M655.75,218.08c-.12-.14-.23-.29-.35-.44l-.46.29.34.43Z"/><polygon points="691.59 76 720.37 76 720.37 34.49 736.15 34.49 736.15 9.07 720.37 9.07 720.37 0 691.59 0 691.59 9.07 675.8 9.07 675.8 34.49 691.59 34.49 691.59 76"/><path d="M1045.34,230.38l1.35-.86c.47-.26,1-.49,1.43-.73a20.48,20.48,0,0,1,2.88-1.27c.49-.19,1-.33,1.5-.49l1.63-.52a17.22,17.22,0,0,1,1.81-.47,14.15,14.15,0,0,1,1.76-.31c2.51-.22,4.93-.43,7.28-.67a12.46,12.46,0,0,1,1.7-.08c.55,0,1.1,0,1.64,0l1.57,0a236.91,236.91,0,0,0-24.07-17.59c-19-12-46-21.23-47.48-21.23-7.94,0-26.3,20.78-19.66,27.21,5.29,5.11,33.75,9.34,58.7,24.39A32.83,32.83,0,0,1,1045.34,230.38Z"/><path d="M1089.8,243.2s-5.41-5.75-14.32-13.54c-1.14.15-2.28.33-3.4.55l-3,.71c-.49.12-1,.24-1.47.38a9.19,9.19,0,0,0-1.4.44c-1.75.66-3.43,1.36-5,2-.4.49-.77,1-1.16,1.35l-.31.31-.39.41-.79.82a21.34,21.34,0,0,0-1.51,1.66c-.24.28-.48.57-.73.84l-.67.87a37.87,37.87,0,0,0-4.5,7.34l-.08.18c1.49,1.29,3,2.62,4.35,4C1082.32,278.47,1089.8,243.2,1089.8,243.2Z"/><path d="M1092.07,824.94c.81-3.31,1.54-6.64,2.31-10s1.58-6.63,2.25-10l2.1-10,1-5,1-5c5.28-26.77,9.38-53.78,12.14-81,5.71-54.31,6.49-109.25,1.21-163.8a566.55,566.55,0,0,0-13.88-81.1c-6.46-26.67-14.48-52.9-23.1-78.79l-13-38.71c-4.2-12.88-8.41-25.73-11.73-38.64-1.64-6.45-3.08-12.92-4.07-19.36-.48-3.22-.85-6.43-1.08-9.61a84.81,84.81,0,0,1-.09-9.42,58,58,0,0,1,1.25-9,42.42,42.42,0,0,1,1.18-4.22l.71-2,.77-1.79a98.42,98.42,0,0,0-13.71-9.88c-.47.6-.93,1.21-1.37,1.84a38.53,38.53,0,0,0-5.44,11.81,63,63,0,0,0-1.91,12.23,104,104,0,0,0,0,11.72c.25,3.8.66,7.53,1.18,11.18a200,200,0,0,0,4.36,21.21c1.77,6.87,3.76,13.58,5.82,20.21s4.27,13.17,6.51,19.65l6.8,19.35,6.91,19.16c4.53,12.77,9.09,25.47,13.3,38.26s8.18,25.63,11.73,38.57q2.67,9.69,5,19.47c1.57,6.51,3,13,4.34,19.61,2.65,13.14,4.76,26.3,6.38,39.66,3.31,26.69,5.13,53.62,5.85,80.62.28,13.49.37,27,.09,40.53s-.84,27-1.81,40.54c-.38,6.76-1,13.5-1.61,20.25-.28,3.37-.68,6.74-1,10.11s-.66,6.74-1.1,10.1c-.83,6.72-1.63,13.45-2.67,20.15L1097.3,774l-1.67,10q-2.6,15.25-5.81,30.4v19.53Q1091,829.44,1092.07,824.94Z"/><path d="M1295.5,902.55q-7.71,23.88-17,47.22t-20.17,45.93a696,696,0,0,1-49.74,87c-9.29,13.91-19.21,27.39-29.54,40.54s-21.13,25.94-32.51,38.2-23.13,24.18-35.2,35.77-24.48,22.81-37.28,33.57a587.62,587.62,0,0,1-81.81,57.87q-21.66,12.65-44.39,23.32c-15.14,7.12-30.62,13.47-46.31,19.26s-31.61,11-47.72,15.48-32.33,8.61-48.71,12L799,1360.1l-6.16,1.2-12.32,2.36c-8.25,1.4-16.48,2.94-24.76,4.13-5.84.93-11.69,1.77-17.54,2.56-2.14,6-6.65,9.57-12.67,11.65,2.21-.25,4.42-.51,6.62-.8l12.58-1.6c4.19-.55,8.36-1.23,12.54-1.84,8.37-1.19,16.7-2.73,25-4.12l12.47-2.37,6.23-1.22,6.21-1.36c16.58-3.47,33-7.65,49.35-12.27s32.45-10,48.37-15.92,31.62-12.49,47-19.8,30.4-15.28,45-23.92a595.86,595.86,0,0,0,82.8-59.15c12.93-11,25.43-22.38,37.57-34.13s23.94-23.8,35.4-36.31,22.31-25.5,32.74-38.84,20.38-27,29.71-41.16a703,703,0,0,0,49.88-88.25Q1276,976,1285.28,952.45t16.88-47.75a759.23,759.23,0,0,0,22.69-90.43l-5.58-5.85A754.36,754.36,0,0,1,1295.5,902.55Z"/><path d="M699.83,1384.67l.58-.06-.6,0Z"/><path d="M1084.29,229.15a45.42,45.42,0,0,1,6.16.41c1,.13,2,.19,3.07.37l3,.6,3,.59c1,.24,2,.53,3,.79,2,.54,4,1,6,1.75l3,1,1.47.5c.49.17,1,.38,1.44.58,1.92.79,3.85,1.54,5.76,2.37l5.62,2.69c1.86.94,3.66,2,5.5,2.95a187.73,187.73,0,0,1,20.88,13.72c6.62,5.07,13,10.47,19.16,16.1s12.07,11.55,17.79,17.65c11.4,12.22,22.12,25.07,32.33,38.31s20,26.83,29.41,40.65a377.55,377.55,0,0,1,25.73,42.93c15.18,29.76,26.69,61.33,35.25,93.63a608.76,608.76,0,0,1,17.29,98.69,714.88,714.88,0,0,1,2.17,100.22q-1.2,25.07-4,50-2.16,18.66-5.23,37.21l5.58,5.85q3.53-21.09,5.91-42.34,2.76-25.15,3.84-50.43a719.24,719.24,0,0,0-2.66-101.05,612.87,612.87,0,0,0-17.9-99.47c-8.79-32.56-20.56-64.4-36.06-94.44a374.8,374.8,0,0,0-26.25-43.3c-9.6-13.78-19.5-27.38-29.94-40.57s-21.43-26-33.09-38.12c-5.85-6.05-11.87-12-18.09-17.65s-12.75-11.05-19.49-16.14a216.88,216.88,0,0,0-21.17-14,129.37,129.37,0,0,0-23.16-10.53c-2-.76-4.06-1.28-6.11-1.87-1-.28-2-.59-3.09-.84l-3.14-.65-3.13-.65c-1.06-.19-2.12-.3-3.18-.46-2.12-.28-4.23-.68-6.38-.78a126.09,126.09,0,0,0-12.93-.59l-1.7,0c2,1.64,3.85,3.23,5.59,4.75A52.91,52.91,0,0,1,1084.29,229.15Z"/><path d="M722.37,1321.05c4.87-4.75,9.8-9.44,14.73-14.12,19.79-18.68,40-36.87,60.49-54.85l61.6-53.63q15.38-13.46,30.55-27.13t29.94-27.8c9.84-9.41,19.52-19,28.91-28.88s18.54-20,27.26-30.46a392.75,392.75,0,0,0,24.51-32.73c.95-1.42,1.93-2.82,2.84-4.26l2.7-4.35,2.71-4.34,2.54-4.45,2.54-4.44c.83-1.49,1.6-3,2.41-4.51l4.78-9A798,798,0,0,0,1055,941.78c10.1-25.33,18.82-51.18,26.53-77.33,1.54-5.16,3-10.36,4.4-15.56l-3.35-3.51q-2.34,9-4.88,18a796.65,796.65,0,0,1-60.16,151l-4.78,9c-.8,1.49-1.59,3-2.41,4.47l-2.52,4.38-2.52,4.37-2.69,4.28-2.69,4.27c-.9,1.43-1.88,2.8-2.81,4.2a391.59,391.59,0,0,1-24.39,32.31,678.79,678.79,0,0,1-56.18,58.64q-14.82,13.95-30.1,27.43t-30.74,26.78l-62.28,52.86q-15.6,13.23-31,26.67t-30.64,27.23c-5.06,4.6-10.12,9.21-15.12,13.89l-7.5,7-1,.9-1.1,1.12c-.67.66-1.28,1.38-1.89,2.1a35.26,35.26,0,0,1,10.17,1.74Z"/><path d="M1089.82,833.94V814.41q-3.3,15.57-7.28,31l3.35,3.51Q1087.92,841.44,1089.82,833.94Z"/><path d="M1327.61,798.72l-5.58-5.85q-1,6.21-2.16,12.41c-.19,1.05-.4,2.09-.6,3.14l5.58,5.85c.49-2.6,1-5.21,1.46-7.82S1327.18,801.3,1327.61,798.72Z"/><path d="M738.25,1370.35c-10.48,1.41-21,2.64-31.48,3.82.08.24.14.48.22.71l-1-.62h0l.77-.09a61,61,0,0,1-2.09-9,59,59,0,0,1-.68-10,46.43,46.43,0,0,1,1.24-9.91,37.06,37.06,0,0,1,3.64-9.24,34.87,34.87,0,0,1,6.19-7.79l.24-.23a35.26,35.26,0,0,0-10.17-1.74l-.21.24a43,43,0,0,0-3.64,5.14,45.6,45.6,0,0,0-4.81,11.45,55.5,55.5,0,0,0-1.77,11.88,69.29,69.29,0,0,0,.53,11.64q.38,2.87,1,5.7c.2,1,.42,1.9.66,2.86l.39,1.45.22.75.29.89,2,6.38.6,0,6.62-.6h0l12.59-1.36c2-.21,4-.42,6-.65C731.6,1379.92,736.11,1376.32,738.25,1370.35Z"/><path d="M706,1374.26l1,.62c-.08-.23-.14-.47-.22-.71l-.77.09Z"/><path d="M1051.17,247.39a37.87,37.87,0,0,1,4.5-7.34l.67-.87c.25-.27.49-.56.73-.84a21.34,21.34,0,0,1,1.51-1.66l.79-.82.39-.41.31-.31c.39-.4.76-.86,1.16-1.35,1.57-.69,3.25-1.39,5-2a9.19,9.19,0,0,1,1.4-.44c.49-.14,1-.26,1.47-.38l3-.71c1.12-.22,2.26-.4,3.4-.55-1.74-1.52-3.6-3.11-5.59-4.75l-1.57,0c-.54,0-1.09,0-1.64,0a12.46,12.46,0,0,0-1.7.08c-2.35.24-4.77.45-7.28.67a14.15,14.15,0,0,0-1.76.31,17.22,17.22,0,0,0-1.81.47l-1.63.52c-.5.16-1,.3-1.5.49a20.48,20.48,0,0,0-2.88,1.27c-.47.24-1,.47-1.43.73l-1.35.86a32.83,32.83,0,0,0-8,7.31,98.42,98.42,0,0,1,13.71,9.88Z"/><path d="M1220,721.4a651.09,651.09,0,0,0,3.51-69.52,587.93,587.93,0,0,0-4.71-69.42l-2.45-17.23-.31-2.15-.39-2.14-.78-4.28-1.57-8.56-1.58-8.55-1.91-8.49-1.91-8.48-1-4.24-.49-2.12-.56-2.1-4.49-16.8-1.13-4.2c-.4-1.39-.85-2.77-1.28-4.15l-2.58-8.3-2.58-8.3c-.45-1.38-.83-2.78-1.32-4.14l-1.46-4.1-5.84-16.37c-8.37-21.59-17.38-43-28-63.57l-3.88-7.76-1.94-3.89-2.08-3.8L1141,353.52c-2.72-5.11-5.78-10-8.76-15l-9-14.86c23.51,39.82,44,81.46,59.61,124.93l5.63,16.37,1.41,4.09c.47,1.36.84,2.76,1.27,4.14l2.49,8.28,2.49,8.29c.41,1.38.85,2.76,1.23,4.15l1.08,4.19,4.31,16.75.53,2.1.46,2.11.91,4.23,1.82,8.45,1.81,8.46,1.48,8.52,1.48,8.52.73,4.26.37,2.13.29,2.14,2.26,17.14c.18,1.43.4,2.86.55,4.29l.39,4.3.8,8.61.79,8.6c.21,2.88.32,5.76.48,8.63l.47,8.63c.13,2.88.39,5.75.38,8.63l.29,17.28a646,646,0,0,1-3.84,69,676.43,676.43,0,0,1-12.2,71.1l3.27,7.66A670.72,670.72,0,0,0,1220,721.4Z"/><path d="M1197.76,813.77q-5.54,21.11-12.47,41.8-10.85,32.82-24.56,64.62c-9.19,21.15-19.28,41.9-30.08,62.29s-22.37,40.36-34.63,59.91-25.2,38.67-38.69,57.41a1169.91,1169.91,0,0,1-87.55,107.3l-5.86,6.39-5.92,6.33c-3.93,4.23-8,8.37-11.94,12.55-8.06,8.29-16.19,16.51-24.47,24.56s-16.69,16-25.23,23.79-17.17,15.48-26.1,22.83c18.13-14.36,35.39-29.82,52.24-45.66,8.43-7.93,16.7-16,24.9-24.2,4.06-4.12,8.16-8.2,12.17-12.38l6-6.24,6-6.3q23.79-25.3,46-52t42.85-54.68q20.61-28,39.3-57.33t35.1-60q16.44-30.66,30.39-62.57t24.83-65q6-18,11-36.36l-2.91-7Z"/><path d="M1203.1,792q-2.49,10.93-5.34,21.8h.34l2.91,7q2.85-10.53,5.36-21.15Z"/><path d="M316,225a12.46,12.46,0,0,1,1.7.08c2.35.24,4.77.45,7.27.67a13.83,13.83,0,0,1,1.76.31,17.39,17.39,0,0,1,1.82.47l1.63.52c.49.16,1,.3,1.49.49a20.6,20.6,0,0,1,2.89,1.27c.47.24,1,.47,1.42.73s.9.57,1.36.86a32.6,32.6,0,0,1,7.95,7.31c24.95-15.05,53.42-19.28,58.7-24.39,6.65-6.43-11.71-27.21-19.65-27.21-1.47,0-28.47,9.21-47.49,21.23a238,238,0,0,0-24.07,17.59l1.57,0C314.91,225,315.46,225,316,225Z"/><path d="M292.88,243.2s7.49,35.27,34.36,8.4c1.41-1.41,2.87-2.74,4.35-4l-.08-.18a37.34,37.34,0,0,0-4.49-7.34l-.68-.87c-.25-.27-.48-.56-.72-.84-.49-.56-1-1.14-1.51-1.66l-.79-.82-.39-.41-.31-.31c-.4-.4-.77-.86-1.17-1.35-1.57-.69-3.24-1.39-5-2a9.19,9.19,0,0,0-1.4-.44c-.49-.14-1-.26-1.48-.38l-3-.71c-1.13-.22-2.26-.4-3.4-.55C298.29,237.45,292.88,243.2,292.88,243.2Z"/><path d="M332.36,249.36l.72,2a42.42,42.42,0,0,1,1.18,4.22,59.26,59.26,0,0,1,1.25,9,84.81,84.81,0,0,1-.09,9.42c-.23,3.18-.6,6.39-1.09,9.61-1,6.44-2.42,12.91-4.07,19.36-3.31,12.91-7.52,25.76-11.72,38.64l-13,38.71c-8.63,25.89-16.64,52.12-23.11,78.79a567.92,567.92,0,0,0-13.87,81.1c-5.28,54.55-4.5,109.49,1.2,163.8q1.2,11.79,2.75,23.54h7c-.13-1.33-.27-2.67-.38-4-.57-6.75-1.23-13.49-1.61-20.25-1-13.5-1.47-27-1.81-40.54s-.2-27,.08-40.53c.73-27,2.55-53.93,5.85-80.62,1.63-13.36,3.74-26.52,6.39-39.66,1.29-6.57,2.76-13.1,4.34-19.61s3.25-13,5-19.47c3.55-12.94,7.51-25.78,11.74-38.57s8.76-25.49,13.3-38.26l6.91-19.16,6.79-19.35c2.25-6.48,4.47-13,6.52-19.65s4-13.34,5.81-20.21a200,200,0,0,0,4.37-21.21c.52-3.65.93-7.38,1.17-11.18a101.68,101.68,0,0,0,0-11.72,63,63,0,0,0-1.91-12.23,38.76,38.76,0,0,0-5.44-11.81c-.44-.63-.9-1.24-1.38-1.84a99,99,0,0,0-13.71,9.88Z"/><path d="M301.19,864.45c7.72,26.15,16.44,52,26.53,77.33a803.22,803.22,0,0,0,34.08,74.29l4.79,9c.8,1.5,1.58,3,2.41,4.51l2.54,4.44,2.54,4.45,2.7,4.34,2.71,4.35c.91,1.44,1.89,2.84,2.83,4.26a395.09,395.09,0,0,0,24.52,32.73c8.72,10.48,17.86,20.6,27.26,30.46s19.06,19.47,28.91,28.88,19.83,18.68,29.94,27.8,20.3,18.16,30.54,27.13l61.6,53.63c20.45,18,40.71,36.17,60.49,54.85,4.94,4.68,9.87,9.37,14.74,14.12l7.29,7.13a32.72,32.72,0,0,1,8.3,12.23,35.87,35.87,0,0,1,6.62-6.75c-.36-.69-.73-1.39-1.13-2.07a43,43,0,0,0-3.64-5.14c-.68-.8-1.35-1.61-2.1-2.34l-1.1-1.12-.95-.9-7.5-7c-5-4.68-10.06-9.29-15.12-13.89q-15.24-13.74-30.64-27.23t-31.05-26.67L527,1194.42q-15.51-13.25-30.75-26.78t-30.09-27.43A677.28,677.28,0,0,1,410,1081.57a389.37,389.37,0,0,1-24.39-32.31c-.93-1.4-1.92-2.77-2.81-4.2l-2.69-4.27-2.69-4.28-2.52-4.37-2.52-4.38c-.83-1.47-1.61-3-2.41-4.47l-4.79-9a796.61,796.61,0,0,1-60.15-151q-2.25-7.85-4.29-15.74h-4.29C298,853.24,299.53,858.86,301.19,864.45Z"/><path d="M286.06,805c.67,3.35,1.5,6.66,2.24,10s1.51,6.65,2.31,10,1.67,6.72,2.53,10.07h4.41q-6.14-25.31-10.5-51l-1.66-10-.23-1.57V800.7Z"/><path d="M51.39,705.65a711.86,711.86,0,0,1,2.17-100.22,607.68,607.68,0,0,1,17.29-98.69c8.56-32.3,20.07-63.87,35.25-93.63a377.48,377.48,0,0,1,25.72-42.93c9.44-13.82,19.16-27.44,29.42-40.65s20.92-26.09,32.33-38.31c5.71-6.1,11.67-12,17.78-17.65s12.55-11,19.17-16.1a187.73,187.73,0,0,1,20.88-13.72c1.83-1,3.64-2,5.5-2.95l5.62-2.69c1.9-.83,3.84-1.58,5.75-2.37.49-.2,1-.41,1.45-.58l1.47-.5,2.94-1c1.95-.73,4-1.21,6-1.75,1-.26,2-.55,3-.79l3-.59,3-.6c1-.18,2.05-.24,3.07-.37a45.27,45.27,0,0,1,6.15-.41,53,53,0,0,1,8.82.51c1.73-1.52,3.6-3.11,5.58-4.75l-1.69,0a126.28,126.28,0,0,0-12.94.59c-2.14.1-4.25.5-6.38.78-1,.16-2.12.27-3.17.46l-3.14.65-3.14.65c-1,.25-2.05.56-3.08.84-2.05.59-4.12,1.11-6.11,1.87A129.46,129.46,0,0,0,250,241.23a218,218,0,0,0-21.16,14c-6.74,5.09-13.22,10.5-19.5,16.14S197.08,283,191.22,289c-11.66,12.15-22.65,24.93-33.08,38.12s-20.34,26.79-29.95,40.57A373.33,373.33,0,0,0,102,411c-15.5,30-27.28,61.88-36.07,94.44A614,614,0,0,0,48,604.9,719.24,719.24,0,0,0,45.32,706q.52,12.09,1.44,24.17a59.41,59.41,0,0,1,6.37,2.12Q52,719,51.39,705.65Z"/><path d="M671.88,1373.71c-15-1.71-30-3.54-45-5.92-8.29-1.19-16.51-2.73-24.76-4.13l-12.32-2.36-6.16-1.2-6.14-1.32c-16.38-3.41-32.61-7.5-48.72-12s-32-9.7-47.71-15.48-31.18-12.14-46.31-19.26-29.95-14.89-44.39-23.32a587,587,0,0,1-81.81-57.87c-12.81-10.76-25.22-22-37.29-33.57s-23.84-23.49-35.19-35.77-22.15-25.08-32.51-38.2-20.26-26.63-29.54-40.54a694.8,694.8,0,0,1-49.74-87q-10.86-22.62-20.17-45.93t-17-47.22q-11-34-18.68-69l-.29.25A63.58,63.58,0,0,1,62.67,838q7.41,33.72,17.85,66.69,7.67,24.13,16.89,47.75t20.16,46.49a704.36,704.36,0,0,0,49.89,88.25c9.33,14.12,19.31,27.8,29.71,41.16s21.27,26.36,32.74,38.84,23.26,24.54,35.4,36.31,24.64,23.17,37.56,34.13a596,596,0,0,0,82.81,59.15q22,13,45,23.92c15.35,7.31,31.07,13.84,47,19.8s32,11.3,48.37,15.92,32.77,8.8,49.34,12.27l6.21,1.36,6.23,1.22,12.48,2.37c8.34,1.39,16.66,2.93,25,4.12,4.19.61,8.36,1.29,12.55,1.84l12.57,1.6c4.19.56,8.39,1,12.59,1.45l12.59,1.36h0l7.2.66.78-2.44C678.53,1380.58,674.44,1377.91,671.88,1373.71Z"/><path d="M55.43,755.66c-.3-2.64-.57-5.29-.84-7.94A47.92,47.92,0,0,0,48,744.38q.55,6,1.21,12,2.81,25.14,7.22,50.07,1.56,8.76,3.33,17.49a45.66,45.66,0,0,0,5.58-5.7c-.86-4.32-1.69-8.63-2.48-13Q58.33,780.59,55.43,755.66Z"/><path d="M54.59,747.72q-.81-7.72-1.46-15.48a59.41,59.41,0,0,0-6.37-2.12q.52,7.14,1.19,14.26A47.92,47.92,0,0,1,54.59,747.72Z"/><path d="M68.51,833.5q-1.68-7.62-3.22-15.26a45.66,45.66,0,0,1-5.58,5.7q1.41,7,3,14.07a63.58,63.58,0,0,0,5.55-4.26Z"/><path d="M281.93,785l1,5,1,5,1.2,5.71V772.41l-1.26-8.49c-1-6.7-1.84-13.43-2.66-20.15-.45-3.36-.73-6.74-1.1-10.1-.21-2-.43-4.08-.64-6.11h-7Q276.29,756.42,281.93,785Z"/><path d="M296.45,847.61h4.29q-1.65-6.29-3.19-12.6h-4.41Q294.75,841.33,296.45,847.61Z"/><path d="M685.2,1377.32l.23-.75.38-1.45c.25-1,.47-1.91.67-2.86.39-1.89.72-3.79,1-5.7a68.25,68.25,0,0,0,.54-11.64,55.5,55.5,0,0,0-1.77-11.88,46.47,46.47,0,0,0-3.68-9.38,35.87,35.87,0,0,0-6.62,6.75,38.31,38.31,0,0,1,1.54,4.8,46.43,46.43,0,0,1,1.24,9.91,58,58,0,0,1-.69,10,59.78,59.78,0,0,1-2.09,9l.78.09h0l-1,.62c.08-.23.15-.47.22-.71l-4-.46c2.56,4.2,6.65,6.87,11.76,8.52l1.28-4Z"/><path d="M676.69,1374.26h0l-.78-.09c-.07.24-.14.48-.22.71Z"/><path d="M310.61,230.21l3,.71c.5.12,1,.24,1.48.38a9.19,9.19,0,0,1,1.4.44c1.75.66,3.42,1.36,5,2,.4.49.77,1,1.17,1.35l.31.31.39.41.79.82c.55.52,1,1.1,1.51,1.66.24.28.47.57.72.84l.68.87a37.34,37.34,0,0,1,4.49,7.34l.08.18a99,99,0,0,1,13.71-9.88,32.6,32.6,0,0,0-7.95-7.31c-.46-.29-.9-.58-1.36-.86s-.95-.49-1.42-.73a20.6,20.6,0,0,0-2.89-1.27c-.48-.19-1-.33-1.49-.49l-1.63-.52a17.39,17.39,0,0,0-1.82-.47,13.83,13.83,0,0,0-1.76-.31c-2.5-.22-4.92-.43-7.27-.67A12.46,12.46,0,0,0,316,225c-.55,0-1.1,0-1.65,0l-1.57,0c-2,1.64-3.85,3.23-5.58,4.75C308.35,229.81,309.48,230,310.61,230.21Z"/><path d="M165.17,740.77a668.38,668.38,0,0,0,21.09,96.09,47.72,47.72,0,0,0,5-.81,669.1,669.1,0,0,1-21.38-96.61A47.92,47.92,0,0,0,165.17,740.77Z"/><path d="M461.1,1256.93c-8.29-8-16.42-16.27-24.47-24.56-4-4.18-8-8.32-11.95-12.55l-5.92-6.33-5.85-6.39a1169.91,1169.91,0,0,1-87.55-107.3q-20.24-28.11-38.7-57.41T252,982.48c-10.8-20.39-20.89-41.14-30.08-62.29s-17.34-42.74-24.56-64.62q-1.23-3.66-2.41-7.34c-1.63.36-3.28.67-5,.9q1.28,4,2.61,8,11,33,24.83,65t30.39,62.57q16.44,30.64,35.1,60t39.29,57.33q20.6,28,42.86,54.68t46,52l6,6.3,6,6.24c4,4.18,8.11,8.26,12.17,12.38,8.2,8.17,16.47,16.27,24.89,24.2,16.86,15.84,34.11,31.3,52.25,45.66-8.93-7.35-17.57-15-26.1-22.83S469.38,1265,461.1,1256.93Z"/><path d="M167.39,720.87a646,646,0,0,1-3.84-69l.28-17.28c0-2.88.25-5.75.38-8.63l.47-8.63c.17-2.87.27-5.75.49-8.63l.79-8.6.79-8.61.4-4.3c.15-1.43.36-2.86.55-4.29L170,565.79l.29-2.14.36-2.13.74-4.26,1.47-8.52,1.49-8.52,1.81-8.46,1.81-8.45.91-4.23.46-2.11.54-2.1,4.31-16.75,1.07-4.19c.39-1.39.83-2.77,1.24-4.15l2.48-8.29,2.49-8.28c.43-1.38.8-2.78,1.28-4.14l1.41-4.09,5.63-16.37c15.6-43.47,36.09-85.11,59.61-124.93l-9,14.86c-3,5-6,9.87-8.75,15l-8.35,15.22-2.09,3.8-1.94,3.89-3.88,7.76c-10.56,20.61-19.57,42-27.95,63.57l-5.83,16.37-1.46,4.1c-.49,1.36-.88,2.76-1.32,4.14l-2.58,8.3-2.59,8.3c-.42,1.38-.87,2.76-1.28,4.15l-1.12,4.2-4.5,16.8-.56,2.1-.48,2.12-1,4.24-1.9,8.48L171,539.55l-1.58,8.55-1.57,8.56-.78,4.28-.39,2.14-.32,2.15-2.44,17.23a590.08,590.08,0,0,0-4.72,69.42,651.1,651.1,0,0,0,3.52,69.52q.38,3.26.78,6.51c1.54-.42,3.09-.8,4.67-1.11C167.87,724.82,167.62,722.85,167.39,720.87Z"/><path d="M169.83,739.44q-.92-6.32-1.71-12.64c-1.58.31-3.13.69-4.67,1.11q.8,6.44,1.72,12.86A47.92,47.92,0,0,1,169.83,739.44Z"/><path d="M191.21,836.05a47.72,47.72,0,0,1-5,.81c1.22,4.1,2.47,8.2,3.77,12.27,1.68-.23,3.33-.54,5-.9C193.69,844.19,192.43,840.12,191.21,836.05Z"/><path class="cls-3" d="M814.69,368.71c11-15,8-16.5,9.46-27.5-20-18.93-79.12-18.93-79.12-18.93S731.23,365.21,814.69,368.71Z"/><path class="cls-3" d="M639.55,306.31c-9.91-28.6-140.9-90.1-211,0C420.15,382.21,636.88,338.42,639.55,306.31Z"/><path class="cls-4" d="M483.65,319.21c6.33-2.22,12.79-4.09,19.28-5.82s13-3.24,19.61-4.64c13.17-2.74,26.45-4.94,39.82-6.5a451.57,451.57,0,0,1,80.72-2.38,378.65,378.65,0,0,1,79.68,13.34l4.87,1.37c1.63.44,3.21,1,4.82,1.52l9.61,3.13,9.47,3.55,4.72,1.79,4.64,2,9.25,4L779.2,335l4.5,2.25,4.41,2.46,8.75,5-9.16-4.15-4.55-2.11-4.65-1.9-9.27-3.82-9.41-3.43-4.69-1.74L750.37,326,740.85,323c-6.44-1.73-12.78-3.78-19.29-5.23l-4.85-1.18c-1.62-.39-3.23-.81-4.87-1.11l-9.77-2.06c-1.62-.37-3.26-.66-4.9-.93l-4.92-.86-4.91-.86c-1.64-.29-3.29-.47-4.94-.72-13.15-2.08-26.41-3.32-39.69-4.16s-26.61-1.14-39.93-.95-26.64.9-39.94,2-26.56,2.7-39.77,4.74c-6.62,1-13.2,2.14-19.77,3.38q-4.94.92-9.85,2C490.17,317.66,486.9,318.39,483.65,319.21Z"/><path class="cls-3" d="M604.13,368.71c-11-15-8-16.5-9.46-27.5,20-18.93,79.12-18.93,79.12-18.93S687.59,365.21,604.13,368.71Z"/><path class="cls-3" d="M779.27,306.31c9.91-28.6,140.9-90.1,211,0C998.67,382.21,781.94,338.42,779.27,306.31Z"/><path class="cls-4" d="M935.17,319.21c-3.25-.82-6.52-1.55-9.8-2.23s-6.55-1.36-9.84-2c-6.58-1.24-13.16-2.41-19.78-3.38-13.21-2-26.48-3.59-39.77-4.74s-26.61-1.84-39.94-2-26.65,0-39.93.95-26.54,2.08-39.69,4.16c-1.64.25-3.3.43-4.94.72l-4.91.86-4.92.86c-1.64.27-3.28.56-4.9.93L707,315.45c-1.64.3-3.25.72-4.87,1.11l-4.85,1.18c-6.51,1.45-12.85,3.5-19.29,5.23L668.45,326l-4.76,1.53L659,329.3l-9.41,3.43-9.27,3.82-4.65,1.9-4.55,2.11L622,344.71l8.75-5,4.41-2.46,4.5-2.25,9.06-4.45,9.25-4,4.64-2,4.72-1.79,9.47-3.55,9.61-3.13c1.61-.5,3.19-1.08,4.82-1.52l4.87-1.37a378.65,378.65,0,0,1,79.68-13.34,451.57,451.57,0,0,1,80.72,2.38c13.37,1.56,26.65,3.76,39.82,6.5,6.57,1.4,13.12,2.92,19.61,4.64S928.84,317,935.17,319.21Z"/></g></g></svg>