<svg xmlns="http://www.w3.org/2000/svg" viewBox="0 0 496.25 329.62"><defs><style>.cls-1{fill:#d1181f;}.cls-2{fill:#231f20;}</style></defs><title>Asset 1</title><g id="Layer_2" data-name="Layer 2"><g id="Layer_1-2" data-name="Layer 1"><path class="cls-1" d="M196.8,1.7V223.58H176.4V176a82.26,82.26,0,0,1-32.73,36.35q-21.67,13-51,13-43.37,0-68-24.23T0,131.35V1.7H21.26V129.64q0,37.41,19.12,57t54,19.55q37.41,0,59.3-23.37t21.89-62.92V1.7Z"/><path class="cls-2" d="M364.27,14.45a103.56,103.56,0,0,1,39.32,40q14.24,25.5,14.24,58.23t-14.24,58.45A101.54,101.54,0,0,1,364.27,211q-25.08,14.25-56.11,14.24-29.32,0-53.13-13.81a95.67,95.67,0,0,1-37-38.47V306H196.8V1.7h20.4V54a96.82,96.82,0,0,1,37.2-39.74Q278.4,0,308.16,0,339.2,0,364.27,14.45ZM352.8,194.25a85,85,0,0,0,32.09-33.15q11.69-21.25,11.69-48.46T384.89,64.19A85.09,85.09,0,0,0,352.8,31q-20.42-11.89-45.91-11.9T261.19,31a85.46,85.46,0,0,0-31.87,33.16q-11.7,21.25-11.69,48.45t11.69,48.46a85.36,85.36,0,0,0,31.87,33.15q20.19,11.91,45.7,11.9T352.8,194.25Z"/><path class="cls-2" d="M232.05,303a33,33,0,0,1-12.65-8l2.68-4.43a31.56,31.56,0,0,0,11.6,7.4A41.64,41.64,0,0,0,249,300.8q11.65,0,17.6-4.43a13.75,13.75,0,0,0,5.94-11.54,12.06,12.06,0,0,0-3.15-8.74,20.9,20.9,0,0,0-7.8-5A108.21,108.21,0,0,0,249,267.47a123.14,123.14,0,0,1-14.39-4.31,23.1,23.1,0,0,1-9.21-6.47q-3.78-4.37-3.78-11.71a20,20,0,0,1,3.14-10.9,21.39,21.39,0,0,1,9.62-7.86q6.47-2.91,16.14-2.92a45.19,45.19,0,0,1,13.28,2,38.8,38.8,0,0,1,11.3,5.36l-2.21,4.77a37.68,37.68,0,0,0-10.78-5.12,40.41,40.41,0,0,0-11.59-1.75q-11.31,0-17.13,4.54a14.25,14.25,0,0,0-5.83,11.77,12,12,0,0,0,3.15,8.74,20.65,20.65,0,0,0,7.8,5,117.68,117.68,0,0,0,12.71,3.73,119.91,119.91,0,0,1,14.33,4.31A23.72,23.72,0,0,1,274.7,273q3.78,4.26,3.78,11.48a19.42,19.42,0,0,1-3.2,10.84,21.83,21.83,0,0,1-9.85,7.81Q258.78,306,249.12,306A47.44,47.44,0,0,1,232.05,303Z"/><path class="cls-2" d="M330.53,301.47a15.44,15.44,0,0,1-5.79,3.36,22.88,22.88,0,0,1-7.25,1.15q-8.3,0-12.8-4.57t-4.51-12.73V247.13H288.49v-5.24h11.69V228h6.1v13.9H326.5v5.24H306.28v40.94q0,6.21,3,9.44t8.84,3.23a14.14,14.14,0,0,0,9.87-3.53Z"/><path class="cls-2" d="M397.3,241.89l-32.65,72.26q-3.66,8.4-8.47,11.94a18.78,18.78,0,0,1-11.4,3.53,23,23,0,0,1-8.22-1.46A17.55,17.55,0,0,1,330,323.9l3-4.64a15.91,15.91,0,0,0,11.82,5,12.52,12.52,0,0,0,7.93-2.56q3.29-2.55,6.09-8.77l3.41-7.68-28.64-63.36h6.46l25.47,56.9,25.47-56.9Z"/><path class="cls-2" d="M410.66,215.55h6.09V306h-6.09Z"/><path class="cls-2" d="M496.13,275.15H441.41a26.58,26.58,0,0,0,3.78,13.22,24.2,24.2,0,0,0,9.57,9,30.59,30.59,0,0,0,25.1.91,22.31,22.31,0,0,0,8.83-6.64l3.54,4a27.08,27.08,0,0,1-10.42,7.68,36.31,36.31,0,0,1-30.53-1.46,30,30,0,0,1-11.63-11.45,32.84,32.84,0,0,1-4.21-16.7,34.57,34.57,0,0,1,4-16.63,29.18,29.18,0,0,1,10.91-11.52,31.53,31.53,0,0,1,31.13-.06,29,29,0,0,1,10.85,11.39,34.26,34.26,0,0,1,4,16.58Zm-42.29-25.4a22.77,22.77,0,0,0-8.59,8.4,27.52,27.52,0,0,0-3.72,12.25h48.75a25.66,25.66,0,0,0-3.66-12.19,23.69,23.69,0,0,0-20.71-11.45A24.41,24.41,0,0,0,453.84,249.75Z"/></g></g></svg>